<svg width="97" height="97" viewBox="0 0 97 97" fill="none" xmlns="http://www.w3.org/2000/svg">
<path d="M10.3335 77.125C5.06374 77.125 0.79179 81.397 0.79179 86.6667C0.79179 91.9364 5.06374 96.2084 10.3335 96.2084C15.6032 96.2084 19.8751 91.9364 19.8751 86.6667C19.8751 81.397 15.6032 77.125 10.3335 77.125Z" fill="#D99BFF"/>
<path d="M48.5 77.125C43.2302 77.125 38.9583 81.397 38.9583 86.6667C38.9583 91.9364 43.2302 96.2084 48.5 96.2084C53.7697 96.2084 58.0416 91.9364 58.0416 86.6667C58.0416 81.397 53.7697 77.125 48.5 77.125Z" fill="#D99BFF"/>
<path d="M48.5 38.9584C43.2302 38.9584 38.9583 43.2304 38.9583 48.5001C38.9583 53.7698 43.2302 58.0417 48.5 58.0417C53.7697 58.0417 58.0416 53.7698 58.0416 48.5001C58.0416 43.2304 53.7697 38.9584 48.5 38.9584Z" fill="#D99BFF"/>
<path d="M86.6667 0.791668C81.397 0.791668 77.125 5.06362 77.125 10.3333C77.125 15.6031 81.397 19.875 86.6667 19.875C91.9364 19.875 96.2084 15.6031 96.2084 10.3333C96.2084 5.06362 91.9364 0.791668 86.6667 0.791668Z" fill="#D99BFF"/>
<path d="M86.6667 77.125C81.397 77.125 77.125 81.397 77.125 86.6667C77.125 91.9364 81.397 96.2084 86.6667 96.2084C91.9364 96.2084 96.2084 91.9364 96.2084 86.6667C96.2084 81.397 91.9364 77.125 86.6667 77.125Z" fill="#D99BFF"/>
<path d="M86.6667 38.9584C81.397 38.9584 77.125 43.2304 77.125 48.5001C77.125 53.7698 81.397 58.0417 86.6667 58.0417C91.9364 58.0417 96.2084 53.7698 96.2084 48.5001C96.2084 43.2304 91.9364 38.9584 86.6667 38.9584Z" fill="#D99BFF"/>
</svg>
