<svg width="36" height="49" viewBox="0 0 36 49" fill="none" xmlns="http://www.w3.org/2000/svg">
<path d="M36 39.5431L19.575 48.5656C18.45 49.1448 17.325 49.1448 16.2 48.5656L0 39.5431L29.3625 10.2478L30.15 10.025C30.825 10.025 31.2075 10.3146 31.275 10.9161L36 39.5431ZM12.0375 10.6933L1.8 27.5131L6.075 0.891112C6.1425 0.289611 6.525 0 7.2 0C7.65 0 7.9425 0.133667 8.1 0.556945L12.9375 9.35667L12.0375 10.6933ZM22.1625 13.5003L0.675 34.8647L16.9875 7.46306C17.2125 7.0175 17.55 6.817 18 6.817C18.45 6.817 18.7425 7.0175 18.9 7.46306L22.1625 13.5003Z" fill="black"/>
</svg>
