<svg width="75" height="67" viewBox="0 0 75 67" fill="none" xmlns="http://www.w3.org/2000/svg">
<path d="M22.4125 59.625C19.5562 57.375 16.5063 55.2188 14.425 52.1875C10.0438 46.8375 6.66875 40.6438 4.3625 34.1344C2.96875 29.9 2.4875 25.3594 0.69375 21.2906C-1.1875 18.3406 1.01563 15.1094 4.25 14.1656C5.6875 13.8938 8.225 12.5344 5.16563 13.5063C2.42187 15.5188 2.15625 11.6781 4.96875 11.4375C6.89063 11.1813 7.59375 9.60938 6.9375 8.19688C4.875 6.85313 11.9375 5.375 8.38438 3.37188C4.6875 -0.625 13.5625 -1.39062 11.375 3.14063C10.8531 6.625 17.575 2.5 16.0156 6.525C17.6 8.45938 21.9531 6.9625 21.8437 9.67812C24.1562 9.83437 24.9469 11.7781 27.1156 11.9281C29.3656 12.9438 33.4344 13.7406 34.1969 16.2719C31.9687 18.0406 26.8094 12.6313 26.5625 17.5156C27.2344 24.7344 27.0625 32.1688 29.7 39.0406C30.95 43.2031 33.9812 46.4781 36.7125 49.7219C39.3281 52.8969 42.8719 55.1281 46.4844 57.0125C49.6531 58.5063 53.0687 59.4969 56.525 60.1188C57.925 59.0469 60.4 55.0656 62.5812 56.7438C62.6844 58.6313 58.2437 60.6906 62.3719 60.4813C64.7969 59.75 66.4781 62.3563 68.475 60.0063C70.3125 62.1844 76.1187 58.6125 74.8094 63.0688C73.0406 64.2063 70.4594 63.5188 68.6875 65.0875C65.7656 63.6281 63.4375 66.3938 60.2031 66.0438C56.6077 66.6653 52.9644 66.9686 49.3156 66.95C43.3406 66.4813 37.2375 66.2812 31.5531 64.2C28.3531 63.2719 25.2281 61.4469 22.4125 59.625ZM27.4594 61.8125C30.5844 63.1625 33.6406 64.5875 37.0656 65.0188C42.5031 65.7688 48.1187 66.9375 53.575 65.875C51.1062 64.7594 48.55 66.3125 46.0906 65.0781C43.1406 65.7125 39.975 64.9156 36.975 64.525C33.5625 63.0063 29.8812 61.9625 26.6906 59.9875C22.7 58.5313 28.7531 61.8562 29.8312 62.1281C32.325 63.5437 27.0906 61.4 26.35 60.8125C24.2625 59.6406 23.9937 59.8844 26.1437 61.075C26.5781 61.325 27.0062 61.5938 27.4562 61.8094L27.4594 61.8125ZM21.5094 57.6063C24.5406 58.7281 21.4969 55.475 20.1031 55.6625C19.4906 54.5969 17.7562 53.9219 18.9781 53.35C16.7781 54.1125 16.675 50.4438 15.6344 50.9656C13.3094 50.2313 14.7281 47.6219 11.9594 46.0281C11.7062 44.3406 9.20312 42.8781 8.40312 40.3344C8.05 39.0344 5.575 35.2938 7.09687 38.7719C8.39062 42.1219 10.6687 44.9906 12.5656 47.8563C14.0344 50.5844 15.775 53.4375 18.4563 55.1375C19.3625 56.0063 20.2312 57.3344 21.5094 57.6063ZM12.7813 48.0219C13.3344 49.0125 12.8844 47.5656 12.7813 48.0219ZM25.1375 58.95C25.8094 58.65 24.1687 58.575 25.1375 58.95ZM26.7812 59.55C26.6125 58.7219 26.0312 60.0125 26.7812 59.55ZM28.8437 60.4094C29.8187 59.4719 27.3312 59.8219 28.8437 60.4094ZM32.3656 62.3781C32.9625 61.4969 30.4594 62.0437 32.3656 62.3781ZM25.5937 57.65C27.1156 56.6656 23.625 57.6375 25.5937 57.65ZM27.1375 58.4188C27.0937 57.9 26.5875 58.6531 27.1375 58.4188ZM34.8562 63.2375C36.0969 64.0188 42.1062 64.9563 38.3406 63.5594C37.7156 63.6906 31.3719 61.7656 34.8531 63.2375H34.8562ZM22.6031 53.6938C22.4781 53.1719 20.6781 53.1156 22.6031 53.6938ZM26.1969 55.7875C27.1344 55.1313 24.2562 55.2875 26.1969 55.7875ZM29.2156 57.6406C30.5594 57.1344 27.0406 57.1313 29.2156 57.6406ZM21.1406 52.1C22.5969 53.2188 27.0156 52.2438 23.3719 51.4344C21.7156 50.55 17.975 49.9469 20.5219 51.9656L21.1406 52.1ZM31.2656 58.2813C31.8687 57.25 28.7187 57.6875 31.2656 58.2813ZM28.1906 55.8344C31.7531 56.8437 25.1969 53.5844 27.3125 55.4656L27.7812 55.6781L28.1906 55.8344ZM34.3562 59.3969C37.7313 59.4281 31.3094 58.9375 34.3562 59.3969ZM19.8437 50.1469C19.7125 49.5219 19.0125 50.2031 19.8437 50.1469ZM40.0625 62.6C40.15 61.4656 38.9594 63.4438 40.0625 62.6ZM25.5937 53.675C25.3937 53.0781 24.5437 53.65 25.5937 53.675ZM20.1625 49.7563C22.1 49.6406 17.5125 48.9031 20.1625 49.7563ZM13.725 45.5938C13.4844 44.6656 11.6188 43.925 13.725 45.5938ZM30.6219 56.3281C30.4531 56.4156 30.2656 55.9219 30.6219 56.3281ZM41.1406 62.7813C41.1094 62.1656 40.5687 63.0156 41.1406 62.7813ZM29.6906 55.3656C29.8781 54.5688 28.0406 55.125 29.6906 55.3656ZM21.8594 50.3906C23.2969 50.2344 19.5469 49.4188 21.8594 50.3906ZM35.1125 58.6313C37.3562 57.7406 32.925 58.1938 35.1125 58.6313ZM28.2187 53.9531C30.8031 54.2844 25.1406 52.1938 27.6531 53.7656L28.2187 53.9531ZM37.2062 59.4781C39.6219 58.0344 38.825 62.8594 41.3031 59.8844C43.7469 58.1031 39.1937 62.0938 42.2094 60.2063C44.3844 58.7469 47.6031 60.8937 49.6344 61.5969C51.0969 61.525 52.5187 62.8625 54.0187 62.05C56.9031 61.2688 48.375 60.8938 50.6125 59.5188C47.9719 60.2844 46.0187 58.6 44.7219 56.9094C41.7594 56.2219 38.3344 54.7125 36.8562 52.0906C36.2562 51.1062 37.7312 52.2281 36.3375 50.6219C34.5562 49.0344 33.6625 47.2313 32.4625 45.3031C31.0344 44.5406 30.8687 42.2938 30.7219 45.2281C30.7344 43.375 28.9937 42.1281 28.5719 42.6469C28.5656 40.8625 30.4312 41.7563 29.1219 40.4375C28.8406 38.5875 27.9156 36.6563 27.6375 34.5719C27.2062 33.5656 27.575 31.4125 26.1594 33.6906C25.6437 36.0969 25.9875 30.7313 26.7906 32.5031C27.8437 30.6906 26.4156 30.9094 26.3531 31.1594C27.0406 29.6344 26.7906 27.4719 26.175 28.2969C26.5406 26.6813 26.7531 22.3531 25.6281 23.1219C26.3094 21.4344 26.9219 15.3937 23.9594 17.6969C22.7594 17.7125 20.6844 18.1344 19.7 18.6219C22.7812 20.3187 19.3875 19.2344 18.1375 18.9656C17.975 20.5344 16.7312 19.8562 15.1812 19.8719C17.6594 20.1781 13.975 22.4031 12.5531 21.5406C10.7094 22.4219 14.1469 24.625 12.5906 25.3063C12.7781 26.3313 9.7625 24.9313 9.99687 27.3063C8.20625 26.5531 9.75313 30.1188 10.65 28.9125C13.6969 29.7375 12.7938 31.6188 12.8688 33.4031C12.375 34.4438 10.4187 30.9563 12.4312 31.1188C10.8469 28.5344 10.6781 30.1813 9.35625 31.3844C9.04375 31.4719 12.7281 33.0938 10.4188 33.8938C12.45 34.2063 12.5062 35.9875 12.9187 37.1125C14.1375 38.3844 13.8875 35.7063 15.3531 37.2375C14.4281 35.875 10.4562 33.4 13.6531 34.1938C13.6375 32.8188 13.075 31.7156 14.0563 31.7438C15.025 29.9875 13.0406 36.0781 15.2281 33.8438C15.8313 33.5781 15.9781 32.0844 17.0719 33.9844C18.65 35.5406 17.6406 36.6656 15.4125 35.2438C15.8094 36.5969 18.3937 37.0781 17.9094 39.1969C18.425 41.0563 19.1438 40.3719 19.7719 40.2656C20.2656 42.0719 20.5437 40.7438 20.5687 39.8813C22.8187 40.3656 22.2938 41.6938 23 42.6313C24.5531 43.3313 20.775 37.875 23.4437 40.9875C26.25 43.5188 24.4969 44.5813 21.975 44.175C23.5688 44.0469 24.0844 46.3313 26.0781 46.25C27.8969 47.1156 29.125 50.4375 25.9937 49.0531C24.9062 48.075 21.0562 46.8656 24.2031 48.7281C27.1062 50.0719 29.4062 50.8781 32.2062 52.5625C34.2062 53.9938 35.075 55.6313 35.8312 55.9563C34.15 56.7594 30.7594 55.3125 33.2781 54.8687C31.7062 54.5844 29.9406 53.7906 31.4437 55.7438C32.725 56.8156 35.975 56.7 36.5594 56.8219C36.0625 57.9094 35.2156 57.9969 36.5781 58.0812C35.0594 58.8937 37.0656 59.0156 37.2062 59.4781ZM34.1 50.7031C33.175 49.7344 32.9344 47.9219 33.9344 49.5C34.4469 49.7063 35.575 52.4594 34.1 50.7031ZM44.2187 57.1313C44.7969 57.0969 44.2375 57.5688 44.2187 57.1313ZM32.6375 48.3313C32.9719 49.4563 32.6062 46.8688 32.6375 48.3313ZM31.6312 46.9781C33.1 47.6156 30.4687 44.7281 31.6312 46.9781ZM19.4438 38.5656C20.1281 38.3781 19.7813 39.7344 19.4438 38.5656ZM29.1437 43.8219C29.6375 45.1469 29.5625 42.2469 29.1437 43.8219ZM22.2937 39.0563C23.3031 39.8688 21.8094 38.1875 22.2937 39.0563ZM28.175 40.9438C27.075 38.475 28.9562 39.5938 28.4187 41.35L28.175 40.9438ZM18.0312 34.1781C17.5375 33.3656 16.725 30.9906 16.9875 30.2656C17.225 31.4469 19.5 35.35 18.1031 31.8844C16.5594 28.9781 19.9469 32.8281 20.2969 33.5531C20.4531 34.2719 19.3438 33.3563 20.0969 35.0469C18.7219 33.1188 19.2844 36.1094 18.0312 34.1781ZM14.8969 32.0188C15.6156 33.3094 15.0219 30.1344 14.8969 32.0188ZM16.3031 32.5031C17.4469 34.4844 16.9781 31.0813 16.3031 32.5031ZM12.9156 29.8781C11.7469 28.7219 10.9031 27.65 12.9688 29.1594C13.7656 29.1906 11.2 26.7281 13.1563 28.3781C15.2188 28.7531 14.1781 31.7594 12.9156 29.8781ZM14.6969 29.8313C15.375 29.1594 15.0563 30.4938 14.6969 29.8313ZM15.7906 30.1844C17.0406 30.9906 14.7656 28.2563 15.7906 30.1844ZM13.6125 28.1C10.2188 25.0813 17.8781 29.6813 14.1656 28.6625L13.6125 28.1ZM23.3313 33.75C21.8625 32.8688 22.9469 27.55 23.4469 31.1875C24.875 30.725 23.3687 33.0625 24.4312 33.0438C24.2656 34.5219 23.7875 35.0531 23.3375 33.75H23.3313ZM26.925 35.875C27.2344 36.9688 27.075 34.2719 26.925 35.875ZM26.3 35.2563C26.4687 34.5688 26.3219 36.0625 26.3 35.2563ZM14.2813 27.1094C12.1031 24.1 20.6156 30.15 15.6781 27.8719C15.1625 27.7375 14.5406 27.6844 14.2813 27.1094ZM21.2062 30.7813C21.6656 31.2 21 28.25 21.2062 30.7813ZM26.4625 34.1531C26.8687 32.7094 26.4937 35.1063 26.4625 34.1531ZM14.6125 25.9594C15.9094 25.6844 19.9813 28.2375 16.2375 26.6906C15.825 26.2281 14.9375 26.4406 14.6125 25.9594ZM25.7375 31.5063C25.875 28.9125 26.5125 29.9594 25.7437 31.875L25.7375 31.5063ZM15.5781 25.0594C16.1063 24.2844 14.1719 21.5594 15.8562 24.0813C16.5812 24.6594 17.9562 25.05 16.7406 25.2906C18.6469 26.975 16.2719 25.7469 15.5781 25.0594ZM25.1875 30.6969C25.5531 27.7469 25.5094 32.425 25.1875 30.6969ZM14.475 22.3344C14.8781 22.1625 14.6875 22.8719 14.475 22.3344ZM16.9813 23.8281C18.1688 25.3375 17.625 22.4719 16.9813 23.8281ZM24.0531 27.7625C24.1875 28.5188 24.0469 27.2406 24.0531 27.7625ZM23.6438 26.8563C24.5562 28.1375 22.6625 24.4313 23.6438 26.8563ZM23.0406 25.2625C23.6031 26.525 22.875 24.2625 23.0406 25.2625ZM24.0219 23.6688C23.3469 22.4813 24.8719 18.4406 25.0406 20.95C24.3312 22.9031 24.8375 23.9969 25.3312 21.375C26.2469 19.3125 25.1344 25.4469 24.0187 23.6719L24.0219 23.6688ZM25.0281 17.6594C25.3219 17.3 25.0906 18.0938 25.0281 17.6594ZM23.3437 50.825C23.3937 51.0438 22.9437 50.4781 23.3437 50.825ZM26.8125 52.575C28.7344 53.075 28.725 52.2781 26.9844 52.0438C26.0469 51.1688 23.0906 50.2469 25.7344 51.9344C25.9125 52.3781 26.4688 52.3688 26.8094 52.5781L26.8125 52.575ZM19.9656 48.0313C21.0281 48.8219 23.9656 50.2781 21.4781 48.3313C22.3188 47.3563 19.8719 46.8375 20.6844 46.1875C18.6219 44.925 19.0594 45.0375 20.5031 45.075C18.0219 43.9688 20.8594 44.05 20.7219 43.4813C19.7688 43.2938 15.9719 41.7938 18.2094 43.6063C15.9406 42.45 17.6687 44.0375 16.9844 43.8688C14.6625 43.2375 19.0469 45.6344 16.6156 45.0406C17.9437 46.0938 20.1969 47.7406 17.1781 46.1562C16.7781 46.7281 19.3344 47.5938 19.9656 48.0313ZM23.5906 50.1156C27.9969 51.5344 21.4312 48.3781 23.5906 50.1156ZM42.1531 61.3594C42.2156 60.4844 41.55 62.1094 42.1531 61.3594ZM44.0625 62.1625C45.0781 61.1781 44.1031 63.7344 45.75 61.9219C45.7656 60.625 45.6969 59.8594 43.8562 61.4344C43.35 61.7156 43.125 62.9125 44.0625 62.1625ZM13.775 43.1406C13.4625 41.9125 11.5875 41.9219 13.775 43.1406ZM15.8125 44.4781C15.0562 43.2219 13.1125 43.3406 15.8125 44.4781ZM27.4062 51.4688C28.5375 52.4688 32.6 52.2063 28.7812 51.5938C28.2125 50.75 25.1844 50.9563 27.4062 51.4688ZM43.3344 61.3094C45.0781 59.8469 41.6469 61.9594 43.3344 61.3094ZM46.9594 63.7969C46.9687 63.3281 46.2094 64.0031 46.9594 63.7969ZM46.9625 63.1406C48.8906 61.0969 45.0937 63.2625 46.9625 63.1406ZM8.76563 38.9469C7.12188 36.6031 7.74375 35.5469 6.15625 33.6344C5.85625 32.1656 3.4375 28.8438 4.90625 32.3656C6.25 34.425 6.65 37.6125 8.76563 38.9469ZM46.3594 62.4906C49.9062 60.1969 44.9031 61.4906 46.3594 62.4906ZM49.0656 63.5531C50.8469 62.0281 47.9406 63.2344 49.0656 63.5531ZM13.1719 40.5469C13.6813 39.7906 11.8594 40.45 13.1719 40.5469ZM48.5 62.825C50.2219 61.7156 48.1062 61.8875 48.1875 62.925L48.5 62.825ZM25.1562 48.1063C25.0937 47.3563 24.2469 48.1688 25.1562 48.1063ZM26.5937 48.9406C26.1406 48.0125 25.8937 49.0875 26.5937 48.9406ZM51.2625 63.5781C53.4656 61.9844 49.925 63.2719 50.8 63.8781L51.2625 63.5781ZM50.4188 63.1719C52.2125 61.6656 48.5219 63.8375 50.4188 63.1719ZM54.7312 66.0406C55.9375 65.2344 53.2656 65.7813 54.7312 66.0406ZM14.2813 40C15.8969 40.3625 20.7375 43.9813 17.8813 40.25C16.4188 39.8188 17.2969 36.2406 15.8031 36.875C16.8031 38.5469 16.6281 39.2594 14.5219 38.2063C11.8812 36.9156 13.0406 38.8438 13.5531 39.375C12.8531 39.5375 14.4875 39.9875 14.2813 40ZM6.91875 34.1875C7.20625 32.9906 4.25313 27.6031 5.525 31.4875C5.98125 32.3 5.93125 33.8438 6.91875 34.1875ZM20.4313 42.5188C20.3906 42.4188 19.6 41.8219 20.4313 42.5188ZM22.4812 42.9938C22.4812 41.7281 20.2156 42.4813 22.4812 42.9938ZM40.2344 54.1906C39.8969 53.3219 38.8969 54.1719 40.2344 54.1906ZM41.0875 54.8125C40.9625 54.3281 40.5969 54.9063 41.0875 54.8125ZM48.125 59.25C48.8 58.75 47.2812 59.1875 48.125 59.25ZM10.5938 35.125C12.5313 34.375 8.51875 34.5938 10.5938 35.125ZM38.6687 52.8187C38.6469 51.5656 37.4344 53.1312 38.6687 52.8187ZM9.825 33.3469C11.0719 32.925 8.67813 33.0656 9.825 33.3469ZM13.4375 35.0969C13.4156 34.6813 13.0563 35.2531 13.4375 35.0969ZM57.4687 62.0969C59.0687 61.7719 62.7125 62.9094 63.3 61.6719C61.3625 61.625 56.5812 60.3031 56.3562 61.9844L56.7812 62.0563L57.4687 62.0969ZM14.5844 35.3844C14.6125 34.1125 13.5937 35.3375 14.5844 35.3844ZM5.09375 28.7969C4.6625 26.375 3.45313 28.4281 5.09375 28.7969ZM7.35625 29.3656C7.38438 28.5844 5.28438 28.6656 7.35625 29.3656ZM8.65 30C8.35625 30.3813 8.275 29.6969 8.65 30ZM16.7906 35.2188C17.1719 34.8688 15.8844 34.9594 16.7906 35.2188ZM7.79063 28.5688C7.57188 26.7406 5.16563 28.2938 7.79063 28.5688ZM3.14687 25.5563C3.08437 24.7125 2.69687 25.875 3.14687 25.5563ZM3.83438 25.0344C3.725 24.0344 3.24063 25.1594 3.83438 25.0344ZM7.64688 27.3125C9.26563 26.6781 4.70937 26 7.32187 27.1875L7.64688 27.3125ZM58.6906 58.8406C59.7219 57.8937 57.3781 58.5469 58.6906 58.8406ZM64.8594 62.0375C65.2719 60.8125 63.8156 62.1938 64.8594 62.0375ZM8.04062 25.3125C8.2125 24.125 6.75937 25.5469 8.04062 25.3125ZM2.61562 21.6813C2.325 20.0094 2.36563 17.075 5.15313 18.0687C1.43125 18.8062 7.72813 22.6937 6.93438 19.625C8.49688 19.7 9.99687 18.7 9.17187 20.2188C12.2562 19.875 14.3906 17.2063 17.3719 17.5781C19.6906 17.2719 22.2281 17.0406 24.7281 16.1063C26.7844 15.9563 28.7594 13.7437 27.6344 12.4344C24.8344 12.1969 21.9 12.5469 18.8 13.1625C15.3687 13.875 12.25 15.2313 8.78438 15.8156C5.40938 16.2688 9.4625 17.0656 8.49688 17.2406C6.73438 17.8531 10.5969 18.2656 8.26875 18.9094C6.83125 18.6344 5.33125 18.1406 5.94688 16.6281C2.7125 17.0437 -0.13125 18.3875 2.425 21.6781H2.6125L2.61562 21.6813ZM10.4094 17.7125C11.1688 14.9188 14.4719 20.0094 11.6531 18.0813C11.3156 17.8313 10.7625 17.625 10.4094 17.7063V17.7125ZM10.5563 16.3562C11.65 15.5438 11.1375 16.8125 10.5563 16.3562ZM11.9469 16.3812C12.0469 15.0969 15.1281 17.0625 12.4563 16.8438L11.9469 16.3812ZM13.8469 15.6156C14.5406 14.8031 14.0469 16.3344 13.8469 15.6156ZM14.3344 15.2906C15.4906 13.9031 20.8813 14.4063 16.9344 15.1563C15.8781 14.3594 15.0656 15.625 14.3344 15.2906ZM21.3656 14.2063C24.8625 15.5563 21.1937 10.4125 21.3656 14.2063ZM23.3656 14.1938C24.0938 12.2813 26.1969 13.4281 23.7031 13.8094C23.7563 14.0125 23.6281 14.7969 23.3656 14.1938ZM7.25625 24.3344C9.43438 23 4.94063 23.1781 7.25625 24.3344ZM8.86562 24.7844C9.63125 23.9719 7.20625 24.4531 8.86562 24.7844ZM4.11563 21.4094C5.3625 20.4562 2.64375 21.0469 4.11563 21.4094ZM68.4969 61.6906C68.5344 60.5813 67.5469 62.1906 68.4969 61.6906ZM61.9562 57.2219C62.1437 55.9469 61.1125 57.3375 61.9562 57.2219ZM70.3 62.1219C72.0406 62.1219 75.575 61.5813 71.7844 61.5813C71.1906 61.675 68.3219 61.6563 70.3 62.1219ZM10.2812 23.9969C11.6875 23.9031 12.4875 22.4438 10.0094 22.5281C6.16563 22.1313 13.3969 23.8406 9.51563 23.3531C8.99375 23.6969 10.2531 24.0938 10.2812 24V23.9969ZM11.525 24.6281C11.375 23.7219 11.0875 25.1094 11.525 24.6281ZM12.9938 20.7C13.6094 19.9406 12.15 20.4969 12.9938 20.7ZM8.30625 12.8625C10.825 12.0062 14.2656 11.0469 15.4531 13.2844C14.2438 11.8281 14.9656 10.3969 16.1094 12.525C17.7219 14.6781 18.5312 11.5469 17.4781 10.8219C18.675 12.3094 20.0375 13.0094 18.2812 10.9156C20.1875 8.62187 14.4594 11.2188 13.1563 11.1906C12.5313 11.4719 6.68125 12.6812 8.30625 12.8625ZM9.78125 10.0406C11.2188 8.95625 14.7437 10.6844 12.4812 8.9625C12.2625 8.76875 7.525 10.2688 9.78125 10.0406ZM15.0125 10.2562C16.6937 10.2969 14.2906 8 16.2906 9.0375C15.9625 7.96562 13.9594 7.76563 12.9781 7.3375C12.4281 8.31875 14.1062 10.2687 15.0125 10.2562ZM10.7 5.50625C11.2813 4.71875 9.68125 5.90625 10.7 5.50625ZM12.8375 6.01875C15.5437 5.65938 12.15 4.85313 12.2938 5.9875L12.8375 6.01875ZM8.84688 2.89375C6.94063 0.40625 12.4281 3.3125 10.4938 0.70625C8.8625 -0.590625 7.29688 2.16875 8.84688 2.89375ZM33.2969 16.0656C34.1719 14.5156 29.6875 13.9781 32.7094 15.5187C32.9906 15.6125 32.9281 16.175 33.2969 16.0656Z" fill="black"/>
</svg>
