<svg width="95" height="36" viewBox="0 0 95 36" fill="none" xmlns="http://www.w3.org/2000/svg">
<path d="M59.3895 10.0996C57.7716 10.5205 56.4356 10.746 55.07 11.2421C53.9864 11.5277 52.888 11.8283 51.6263 12.159L51.5372 12.1741C50.9138 12.3544 50.8544 12.3695 50.2755 11.693C49.5779 10.8963 49.0732 10.3852 48.1083 9.90421C45.1841 8.46112 42.3638 8.88202 39.7365 10.6107C36.5896 12.6701 34.9717 15.7216 35.0162 19.5097C35.0607 23.2678 37.599 26.3494 41.1318 26.8605C44.3974 27.2814 47.0396 26.169 49.1177 23.7789C49.4294 23.388 49.7114 22.9822 50.0232 22.5312C50.1419 22.3809 50.2458 22.2155 50.3646 22.0351H41.4435C40.4787 22.0351 40.2412 21.4339 40.5677 20.6372C41.1615 19.179 42.2748 16.7438 42.9279 15.5262C43.0615 15.2556 43.388 14.6544 43.9521 14.6544H58.9591C59.627 12.6401 60.7106 10.6107 62.1653 8.6866C65.5348 4.19199 69.4832 1.84698 75.109 0.869891C79.8292 0.0280909 84.2675 0.494088 88.305 3.26C91.9565 5.7854 94.2128 9.21273 94.8214 13.7073C95.6081 20.0359 93.7971 25.1769 89.3737 29.5813C86.4495 32.723 82.7089 34.6922 78.4043 35.5791C77.573 35.7294 76.7566 35.8046 75.9551 35.8797C75.5246 35.9098 75.109 35.9549 74.6933 36C70.4926 35.9098 66.6481 34.6922 63.4122 31.8812C61.1411 29.8819 59.5676 27.4317 58.7958 24.5906C58.2466 25.688 57.6083 26.7552 56.7177 27.7624C53.5114 32.2119 49.1622 34.9778 43.6701 35.7144C39.1279 36.3307 34.9272 35.4438 31.2162 32.6328C27.8022 30.0022 25.8577 26.5448 25.353 22.2306C24.7444 17.1196 26.2288 12.3995 29.2717 8.50622C32.567 4.1469 36.9162 1.38098 42.2302 0.403896C46.5794 -0.528097 50.7357 0.118285 54.4911 2.70381C56.9403 4.34232 58.6919 6.5821 59.8497 9.30292C60.1317 9.72382 59.9387 9.96434 59.3895 10.0996ZM7.1695 10.9414C6.98396 10.9414 6.93794 10.8512 7.02997 10.7009L8.00223 9.43821C8.09426 9.30292 8.32582 9.21273 8.51137 9.21273H25.0264C25.2046 9.21273 25.2491 9.34802 25.16 9.48331L24.3733 10.7009C24.2843 10.8512 24.0468 10.9865 23.9132 10.9865L7.1695 10.9414ZM0.184963 15.2557C1.10063e-05 15.2557 -0.0463012 15.1504 0.0463232 15.0151L1.01754 13.7524C1.11017 13.6171 1.34143 13.5119 1.52594 13.5119H22.6218C22.7999 13.5119 22.8889 13.6622 22.8444 13.7975L22.4733 14.9249C22.4288 15.1053 22.2507 15.2106 22.0577 15.2106L0.184963 15.2557ZM11.2396 19.2843C11.1476 19.4195 11.1936 19.5548 11.3777 19.5548L21.464 19.5999C21.5975 19.5999 21.7905 19.4646 21.7905 19.2843L21.8796 18.1569C21.8796 17.9614 21.7905 17.8261 21.5975 17.8261H12.3499C12.1644 17.8261 11.9803 17.9614 11.8868 18.1118L11.2396 19.2843ZM85.6777 16.5785C85.648 16.1876 85.6331 15.8569 85.5737 15.5262C84.7425 10.8963 80.5269 8.2657 76.1332 9.30292C71.8285 10.28 69.0527 13.0459 68.0434 17.4503C67.2121 21.1032 68.9637 24.8011 72.2887 26.3043C74.8418 27.4317 77.38 27.2964 79.8292 26.0187C83.4808 23.9743 85.4698 21.1032 85.7073 17.0745C85.6925 16.8942 85.6925 16.7288 85.6777 16.5785Z" fill="#F8F8F8"/>
</svg>
