<svg width="33" height="33" viewBox="0 0 33 33" fill="none" xmlns="http://www.w3.org/2000/svg">
<path d="M5.742 9.7504L14.8544 4.433L13.7456 2.5322L4.631 7.8496L5.742 9.7504ZM4.4 20.9V12.1H2.2V20.9H4.4ZM18.1456 4.433L27.2602 9.7504L28.369 7.8496L19.2544 2.5322L18.1456 4.433ZM28.6 12.1V20.9H30.8V12.1H28.6ZM28.0456 22.792L18.1456 28.567L19.2544 30.4678L29.1544 24.6928L28.0456 22.792ZM14.8544 28.567L5.7398 23.2496L4.631 25.1504L13.7456 30.4678L14.8544 28.567ZM14.4848 4.3406L3.4848 20.8406L5.3152 22.0594L16.3152 5.5594L14.4848 4.3406ZM29.5152 20.8406L18.5152 4.3406L16.6848 5.5594L27.6848 22.0594L29.5152 20.8406ZM5.5 24.2H27.5V22H5.5V24.2ZM16.5 4.4C16.2083 4.4 15.9285 4.28411 15.7222 4.07782C15.5159 3.87153 15.4 3.59174 15.4 3.3H13.2C13.2 4.17521 13.5477 5.01458 14.1665 5.63345C14.7854 6.25232 15.6248 6.6 16.5 6.6V4.4ZM17.6 3.3C17.6 3.59174 17.4841 3.87153 17.2778 4.07782C17.0715 4.28411 16.7917 4.4 16.5 4.4V6.6C17.3752 6.6 18.2146 6.25232 18.8335 5.63345C19.4523 5.01458 19.8 4.17521 19.8 3.3H17.6ZM16.5 2.2C16.7917 2.2 17.0715 2.31589 17.2778 2.52218C17.4841 2.72847 17.6 3.00826 17.6 3.3H19.8C19.8 2.42479 19.4523 1.58542 18.8335 0.966548C18.2146 0.347678 17.3752 0 16.5 0V2.2ZM16.5 0C15.6248 0 14.7854 0.347678 14.1665 0.966548C13.5477 1.58542 13.2 2.42479 13.2 3.3H15.4C15.4 3.00826 15.5159 2.72847 15.7222 2.52218C15.9285 2.31589 16.2083 2.2 16.5 2.2V0ZM29.7 11C29.4083 11 29.1285 10.8841 28.9222 10.6778C28.7159 10.4715 28.6 10.1917 28.6 9.9H26.4C26.4 10.7752 26.7477 11.6146 27.3665 12.2335C27.9854 12.8523 28.8248 13.2 29.7 13.2V11ZM30.8 9.9C30.8 10.1917 30.6841 10.4715 30.4778 10.6778C30.2715 10.8841 29.9917 11 29.7 11V13.2C30.5752 13.2 31.4146 12.8523 32.0335 12.2335C32.6523 11.6146 33 10.7752 33 9.9H30.8ZM29.7 8.8C29.9917 8.8 30.2715 8.91589 30.4778 9.12218C30.6841 9.32847 30.8 9.60826 30.8 9.9H33C33 9.02479 32.6523 8.18542 32.0335 7.56655C31.4146 6.94768 30.5752 6.6 29.7 6.6V8.8ZM29.7 6.6C28.8248 6.6 27.9854 6.94768 27.3665 7.56655C26.7477 8.18542 26.4 9.02479 26.4 9.9H28.6C28.6 9.60826 28.7159 9.32847 28.9222 9.12218C29.1285 8.91589 29.4083 8.8 29.7 8.8V6.6ZM29.7 24.2C29.4083 24.2 29.1285 24.0841 28.9222 23.8778C28.7159 23.6715 28.6 23.3917 28.6 23.1H26.4C26.4 23.9752 26.7477 24.8146 27.3665 25.4335C27.9854 26.0523 28.8248 26.4 29.7 26.4V24.2ZM30.8 23.1C30.8 23.3917 30.6841 23.6715 30.4778 23.8778C30.2715 24.0841 29.9917 24.2 29.7 24.2V26.4C30.5752 26.4 31.4146 26.0523 32.0335 25.4335C32.6523 24.8146 33 23.9752 33 23.1H30.8ZM29.7 22C29.9917 22 30.2715 22.1159 30.4778 22.3222C30.6841 22.5285 30.8 22.8083 30.8 23.1H33C33 22.2248 32.6523 21.3854 32.0335 20.7665C31.4146 20.1477 30.5752 19.8 29.7 19.8V22ZM29.7 19.8C28.8248 19.8 27.9854 20.1477 27.3665 20.7665C26.7477 21.3854 26.4 22.2248 26.4 23.1H28.6C28.6 22.8083 28.7159 22.5285 28.9222 22.3222C29.1285 22.1159 29.4083 22 29.7 22V19.8ZM16.5 30.8C16.2083 30.8 15.9285 30.6841 15.7222 30.4778C15.5159 30.2715 15.4 29.9917 15.4 29.7H13.2C13.2 30.5752 13.5477 31.4146 14.1665 32.0335C14.7854 32.6523 15.6248 33 16.5 33V30.8ZM17.6 29.7C17.6 29.9917 17.4841 30.2715 17.2778 30.4778C17.0715 30.6841 16.7917 30.8 16.5 30.8V33C17.3752 33 18.2146 32.6523 18.8335 32.0335C19.4523 31.4146 19.8 30.5752 19.8 29.7H17.6ZM16.5 28.6C16.7917 28.6 17.0715 28.7159 17.2778 28.9222C17.4841 29.1285 17.6 29.4083 17.6 29.7H19.8C19.8 28.8248 19.4523 27.9854 18.8335 27.3665C18.2146 26.7477 17.3752 26.4 16.5 26.4V28.6ZM16.5 26.4C15.6248 26.4 14.7854 26.7477 14.1665 27.3665C13.5477 27.9854 13.2 28.8248 13.2 29.7H15.4C15.4 29.4083 15.5159 29.1285 15.7222 28.9222C15.9285 28.7159 16.2083 28.6 16.5 28.6V26.4ZM3.3 24.2C3.00826 24.2 2.72847 24.0841 2.52218 23.8778C2.31589 23.6715 2.2 23.3917 2.2 23.1H0C0 23.9752 0.347678 24.8146 0.966548 25.4335C1.58542 26.0523 2.42479 26.4 3.3 26.4V24.2ZM4.4 23.1C4.4 23.3917 4.28411 23.6715 4.07782 23.8778C3.87153 24.0841 3.59174 24.2 3.3 24.2V26.4C4.17521 26.4 5.01458 26.0523 5.63345 25.4335C6.25232 24.8146 6.6 23.9752 6.6 23.1H4.4ZM3.3 22C3.59174 22 3.87153 22.1159 4.07782 22.3222C4.28411 22.5285 4.4 22.8083 4.4 23.1H6.6C6.6 22.2248 6.25232 21.3854 5.63345 20.7665C5.01458 20.1477 4.17521 19.8 3.3 19.8V22ZM3.3 19.8C2.42479 19.8 1.58542 20.1477 0.966548 20.7665C0.347678 21.3854 0 22.2248 0 23.1H2.2C2.2 22.8083 2.31589 22.5285 2.52218 22.3222C2.72847 22.1159 3.00826 22 3.3 22V19.8ZM3.3 11C3.00826 11 2.72847 10.8841 2.52218 10.6778C2.31589 10.4715 2.2 10.1917 2.2 9.9H0C0 10.7752 0.347678 11.6146 0.966548 12.2335C1.58542 12.8523 2.42479 13.2 3.3 13.2V11ZM4.4 9.9C4.4 10.1917 4.28411 10.4715 4.07782 10.6778C3.87153 10.8841 3.59174 11 3.3 11V13.2C4.17521 13.2 5.01458 12.8523 5.63345 12.2335C6.25232 11.6146 6.6 10.7752 6.6 9.9H4.4ZM3.3 8.8C3.59174 8.8 3.87153 8.91589 4.07782 9.12218C4.28411 9.32847 4.4 9.60826 4.4 9.9H6.6C6.6 9.02479 6.25232 8.18542 5.63345 7.56655C5.01458 6.94768 4.17521 6.6 3.3 6.6V8.8ZM3.3 6.6C2.42479 6.6 1.58542 6.94768 0.966548 7.56655C0.347678 8.18542 0 9.02479 0 9.9H2.2C2.2 9.60826 2.31589 9.32847 2.52218 9.12218C2.72847 8.91589 3.00826 8.8 3.3 8.8V6.6Z" fill="black"/>
</svg>
