<svg width="54" height="54" viewBox="0 0 54 54" fill="none" xmlns="http://www.w3.org/2000/svg">
<path d="M27 8.25H8.25C6.5924 8.25 5.00268 8.90848 3.83058 10.0806C2.65848 11.2527 2 12.8424 2 14.5V45.75C2 47.4076 2.65848 48.9973 3.83058 50.1694C5.00268 51.3415 6.5924 52 8.25 52H39.5C41.1576 52 42.7473 51.3415 43.9194 50.1694C45.0915 48.9973 45.75 47.4076 45.75 45.75V27M23.875 30.125L52 2ZM36.375 2H52V17.625" fill="black"/>
<path d="M27 8.25H8.25C6.5924 8.25 5.00268 8.90848 3.83058 10.0806C2.65848 11.2527 2 12.8424 2 14.5V45.75C2 47.4076 2.65848 48.9973 3.83058 50.1694C5.00268 51.3415 6.5924 52 8.25 52H39.5C41.1576 52 42.7473 51.3415 43.9194 50.1694C45.0915 48.9973 45.75 47.4076 45.75 45.75V27M23.875 30.125L52 2M52 2H36.375M52 2V17.625" stroke="#DD94FF" stroke-width="4" stroke-linecap="round" stroke-linejoin="round"/>
</svg>
