<svg width="33" height="54" viewBox="0 0 33 54" fill="none" xmlns="http://www.w3.org/2000/svg">
<path fill-rule="evenodd" clip-rule="evenodd" d="M17.8038 1.57244C17.6382 1.39141 17.4368 1.24684 17.2123 1.14792C16.9879 1.04901 16.7453 0.997925 16.5 0.997925C16.2547 0.997925 16.0121 1.04901 15.7876 1.14792C15.5631 1.24684 15.3617 1.39141 15.1962 1.57244L5.9035 11.7131C2.78916 15.1096 0.983122 19.5023 0.807731 24.1071C0.632339 28.7119 2.09901 33.2292 4.94596 36.8528L14.7333 49.3113V54H18.2666V49.3113L28.054 36.8528C30.9005 33.2299 32.3672 28.7136 32.1924 24.1095C32.0177 19.5055 30.2129 15.1133 27.1 11.7166L17.8038 1.57598V1.57244ZM18.2666 11.6C18.2666 11.1315 18.0805 10.6821 17.7492 10.3508C17.4179 10.0195 16.9685 9.83338 16.5 9.83338C16.0314 9.83338 15.5821 10.0195 15.2507 10.3508C14.9194 10.6821 14.7333 11.1315 14.7333 11.6V38.1C14.7333 38.5686 14.9194 39.018 15.2507 39.3493C15.5821 39.6806 16.0314 39.8667 16.5 39.8667C16.9685 39.8667 17.4179 39.6806 17.7492 39.3493C18.0805 39.018 18.2666 38.5686 18.2666 38.1V11.6Z" fill="black"/>
</svg>
