<svg width="115" height="50" viewBox="0 0 115 50" fill="none" xmlns="http://www.w3.org/2000/svg">
<path d="M72.68 38.068C72.68 38.812 72.704 39.688 72.752 40.696C72.8 41.368 72.824 41.812 72.824 42.028C72.824 42.676 72.512 43 71.888 43H67.208V41.776C67.208 40.576 66.74 39.244 65.804 37.78L57.848 25.54V43H52.376V17.8H57.344C57.656 17.8 57.908 17.848 58.1 17.944C58.316 18.016 58.52 18.208 58.712 18.52L67.208 31.444V17.8H72.68V38.068ZM93.135 39.184V43H78.303V17.8H83.847V39.184H93.135ZM104.248 17.8C107.512 17.8 109.996 18.496 111.7 19.888C113.404 21.28 114.256 23.32 114.256 26.008C114.256 28.768 113.38 30.904 111.628 32.416C109.9 33.928 107.44 34.684 104.248 34.684H101.944V43H96.4001V17.8H104.248ZM103.888 30.58C105.568 30.58 106.78 30.22 107.524 29.5C108.268 28.78 108.64 27.616 108.64 26.008C108.64 24.424 108.268 23.284 107.524 22.588C106.78 21.892 105.568 21.544 103.888 21.544H101.944V30.58H103.888Z" fill="white"/>
<path d="M22.9167 16.6667H27.0833V18.75H22.9167V16.6667ZM22.9167 8.33333H27.0833V10.4167H22.9167V8.33333ZM22.9167 20.8333H27.0833V22.9167H22.9167V20.8333Z" fill="#EEEEEE"/>
<path d="M43.75 25V18.75C37.3988 18.7487 31.2452 20.9585 26.3458 25H23.6542C18.7548 20.9585 12.6012 18.7487 6.25001 18.75V25C5.69747 25 5.16757 25.2195 4.77687 25.6102C4.38617 26.0009 4.16667 26.5308 4.16667 27.0833V31.25C4.16667 31.8025 4.38617 32.3324 4.77687 32.7231C5.16757 33.1138 5.69747 33.3333 6.25001 33.3333V41.6667C13.2126 41.6603 19.9166 44.3046 25 49.0625C30.0887 44.3131 36.7892 41.6701 43.75 41.6667V33.3333C44.3025 33.3333 44.8324 33.1138 45.2231 32.7231C45.6138 32.3324 45.8333 31.8025 45.8333 31.25V27.0833C45.8333 26.5308 45.6138 26.0009 45.2231 25.6102C44.8324 25.2195 44.3025 25 43.75 25Z" fill="#EEEEEE"/>
<path d="M18.75 10.4167C19.9006 10.4167 20.8333 9.48393 20.8333 8.33333C20.8333 7.18274 19.9006 6.25 18.75 6.25C17.5994 6.25 16.6667 7.18274 16.6667 8.33333C16.6667 9.48393 17.5994 10.4167 18.75 10.4167Z" fill="#EEEEEE"/>
<path d="M31.25 10.4167C32.4006 10.4167 33.3333 9.48393 33.3333 8.33333C33.3333 7.18274 32.4006 6.25 31.25 6.25C30.0994 6.25 29.1667 7.18274 29.1667 8.33333C29.1667 9.48393 30.0994 10.4167 31.25 10.4167Z" fill="#EEEEEE"/>
<path d="M33.3333 16.6667H16.6667C15.0096 16.665 13.4208 16.006 12.2491 14.8343C11.0773 13.6625 10.4183 12.0738 10.4167 10.4167V6.25C10.4183 4.59291 11.0773 3.00415 12.2491 1.83241C13.4208 0.660667 15.0096 0.00165557 16.6667 9.53674e-07L33.3333 9.53674e-07C34.9904 0.00165557 36.5792 0.660667 37.7509 1.83241C38.9227 3.00415 39.5817 4.59291 39.5833 6.25V10.4167C39.5817 12.0738 38.9227 13.6625 37.7509 14.8343C36.5792 16.006 34.9904 16.665 33.3333 16.6667ZM16.6667 4.16667C16.1143 4.16722 15.5847 4.38689 15.1941 4.77747C14.8036 5.16805 14.5839 5.69764 14.5833 6.25V10.4167C14.5839 10.969 14.8036 11.4986 15.1941 11.8892C15.5847 12.2798 16.1143 12.4994 16.6667 12.5H33.3333C33.8857 12.4994 34.4153 12.2798 34.8059 11.8892C35.1964 11.4986 35.4161 10.969 35.4167 10.4167V6.25C35.4161 5.69764 35.1964 5.16805 34.8059 4.77747C34.4153 4.38689 33.8857 4.16722 33.3333 4.16667H16.6667Z" fill="#EEEEEE"/>
</svg>
