<svg width="134" height="34" viewBox="0 0 134 34" fill="none" xmlns="http://www.w3.org/2000/svg">
<path d="M8.584 0.799998C11.848 0.799998 14.332 1.496 16.036 2.888C17.74 4.28 18.592 6.32 18.592 9.008C18.592 11.768 17.716 13.904 15.964 15.416C14.236 16.928 11.776 17.684 8.584 17.684H6.28V26H0.736V0.799998H8.584ZM8.224 13.58C9.904 13.58 11.116 13.22 11.86 12.5C12.604 11.78 12.976 10.616 12.976 9.008C12.976 7.424 12.604 6.284 11.86 5.588C11.116 4.892 9.904 4.544 8.224 4.544H6.28V13.58H8.224ZM39.5524 6.2L31.8844 27.512C31.0684 29.768 30.0964 31.364 28.9684 32.3C27.8404 33.236 26.3164 33.704 24.3964 33.704C23.1964 33.704 22.2244 33.464 21.4804 32.984C20.7364 32.504 20.3644 31.88 20.3644 31.112C20.3644 30.704 20.4364 30.332 20.5804 29.996C20.7244 29.684 20.9764 29.312 21.3364 28.88C21.9364 29.288 22.6684 29.492 23.5324 29.492C24.4444 29.492 25.1524 29.216 25.6564 28.664C26.1844 28.136 26.6884 27.14 27.1684 25.676L20.1124 6.2H25.5844L29.8684 19.448L34.0804 6.2H39.5524ZM50.5381 21.5C53.3941 21.5 55.5901 21.992 57.1261 22.976C58.6621 23.936 59.4301 25.316 59.4301 27.116C59.4301 29.06 58.5661 30.596 56.8381 31.724C55.1101 32.876 52.7701 33.452 49.8181 33.452C46.8421 33.452 44.5381 32.972 42.9061 32.012C41.2981 31.076 40.4941 29.732 40.4941 27.98C40.4941 25.724 42.1021 24.44 45.3181 24.128V24.02C44.3341 23.828 43.5661 23.492 43.0141 23.012C42.4861 22.508 42.2221 21.908 42.2221 21.212C42.2221 20.564 42.4861 20 43.0141 19.52C43.5421 19.016 44.2501 18.644 45.1381 18.404C43.9621 17.804 43.0261 17.024 42.3301 16.064C41.6341 15.104 41.2861 14.048 41.2861 12.896C41.2861 10.64 42.0541 8.9 43.5901 7.676C45.1501 6.452 47.3341 5.84 50.1421 5.84C51.5581 5.84 52.8541 6.08 54.0301 6.56C54.5821 5.816 55.2301 5.216 55.9741 4.76C56.7421 4.304 57.4621 4.076 58.1341 4.076C58.9981 4.076 59.5981 4.388 59.9341 5.012C60.2941 5.612 60.4741 6.668 60.4741 8.18C58.8421 8.18 57.6541 8.372 56.9101 8.756C57.7261 9.836 58.1341 11.072 58.1341 12.464C58.1341 14.672 57.3781 16.376 55.8661 17.576C54.3781 18.776 52.2421 19.376 49.4581 19.376C48.3301 19.376 47.5621 19.46 47.1541 19.628C46.7461 19.772 46.5421 20.06 46.5421 20.492C46.5421 20.804 46.6381 21.032 46.8301 21.176C47.0221 21.296 47.3821 21.38 47.9101 21.428C48.4621 21.476 49.3381 21.5 50.5381 21.5ZM49.6741 9.224C47.6821 9.224 46.6861 10.352 46.6861 12.608C46.6861 13.736 46.9261 14.576 47.4061 15.128C47.8861 15.656 48.6421 15.92 49.6741 15.92C50.7061 15.92 51.4621 15.656 51.9421 15.128C52.4461 14.576 52.6981 13.736 52.6981 12.608C52.6981 11.456 52.4461 10.604 51.9421 10.052C51.4621 9.5 50.7061 9.224 49.6741 9.224ZM49.8181 29.996C51.2821 29.996 52.3981 29.768 53.1661 29.312C53.9581 28.856 54.3541 28.196 54.3541 27.332C54.3541 25.652 52.8901 24.812 49.9621 24.812C47.2741 24.812 45.9301 25.652 45.9301 27.332C45.9301 28.268 46.2301 28.94 46.8301 29.348C47.4541 29.78 48.4501 29.996 49.8181 29.996ZM78.6887 18.548C78.6887 20.516 78.7607 21.932 78.9047 22.796C79.0727 23.66 79.3967 24.404 79.8767 25.028C79.3727 25.388 78.7247 25.688 77.9327 25.928C77.1407 26.144 76.4207 26.252 75.7727 26.252C75.1727 26.252 74.6927 26.036 74.3327 25.604C73.9727 25.172 73.7087 24.488 73.5407 23.552C72.8927 24.56 72.1247 25.28 71.2367 25.712C70.3487 26.144 69.1967 26.36 67.7807 26.36C66.0287 26.36 64.6127 25.892 63.5327 24.956C62.4527 23.996 61.9127 22.748 61.9127 21.212C61.9127 19.052 62.8127 17.444 64.6127 16.388C66.4367 15.308 69.3527 14.66 73.3607 14.444V12.572C73.3607 11.588 73.0967 10.856 72.5687 10.376C72.0647 9.896 71.2847 9.656 70.2287 9.656C69.4607 9.656 68.6927 9.812 67.9247 10.124C67.1807 10.412 66.2567 10.928 65.1527 11.672C65.0327 11.768 64.8647 11.816 64.6487 11.816C64.2167 11.816 63.7487 11.528 63.2447 10.952C62.7647 10.376 62.3327 9.62 61.9487 8.684C62.8847 7.868 64.1927 7.196 65.8727 6.668C67.5767 6.116 69.2567 5.84 70.9127 5.84C73.4087 5.84 75.3287 6.428 76.6727 7.604C78.0167 8.756 78.6887 10.412 78.6887 12.572V18.548ZM69.6527 22.904C70.3727 22.904 71.0327 22.652 71.6327 22.148C72.2567 21.644 72.8327 20.864 73.3607 19.808V17.144C71.3687 17.216 69.8567 17.552 68.8247 18.152C67.8167 18.728 67.3127 19.556 67.3127 20.636C67.3127 21.332 67.5287 21.884 67.9607 22.292C68.3927 22.7 68.9567 22.904 69.6527 22.904ZM105.09 5.84C106.986 5.84 108.474 6.404 109.554 7.532C110.658 8.636 111.21 10.172 111.21 12.14V26H105.846V12.248C105.846 11.072 105.678 10.28 105.342 9.872C105.03 9.44 104.418 9.224 103.506 9.224C102.138 9.224 100.986 9.824 100.05 11.024V11.456V26H94.7216V11.888C94.7216 10.88 94.5776 10.184 94.2896 9.8C94.0256 9.416 93.5216 9.224 92.7776 9.224C91.4816 9.224 90.1736 10.004 88.8536 11.564V26H83.5256V13.292C83.5256 9.884 83.3816 7.784 83.0936 6.992C83.5496 6.728 84.1256 6.512 84.8216 6.344C85.5176 6.152 86.1536 6.056 86.7296 6.056C87.3776 6.056 87.8576 6.248 88.1696 6.632C88.5056 6.992 88.7216 7.616 88.8176 8.504C89.6816 7.568 90.5816 6.896 91.5176 6.488C92.4536 6.056 93.4976 5.84 94.6496 5.84C95.7536 5.84 96.7136 6.068 97.5296 6.524C98.3456 6.956 98.9696 7.592 99.4016 8.432C100.746 6.704 102.642 5.84 105.09 5.84ZM133.57 14.804C133.57 15.14 133.51 15.896 133.39 17.072H120.646C120.766 18.896 121.198 20.312 121.942 21.32C122.71 22.328 123.706 22.832 124.93 22.832C125.482 22.832 125.938 22.76 126.298 22.616C126.682 22.472 127.066 22.22 127.45 21.86C127.858 21.476 128.386 20.864 129.034 20.024C129.154 19.832 129.406 19.736 129.79 19.736C130.198 19.736 130.69 19.88 131.266 20.168C131.866 20.432 132.502 20.816 133.174 21.32C131.614 24.68 128.866 26.36 124.93 26.36C121.906 26.36 119.53 25.448 117.802 23.624C116.074 21.776 115.21 19.256 115.21 16.064C115.21 13.976 115.594 12.164 116.362 10.628C117.154 9.092 118.27 7.916 119.71 7.1C121.174 6.26 122.902 5.84 124.894 5.84C127.654 5.84 129.79 6.62 131.302 8.18C132.814 9.74 133.57 11.948 133.57 14.804ZM128.17 14.048C128.17 10.832 127.042 9.224 124.786 9.224C123.634 9.224 122.71 9.632 122.014 10.448C121.318 11.264 120.886 12.464 120.718 14.048H128.17Z" fill="white"/>
</svg>
