<svg width="52" height="52" viewBox="0 0 52 52" fill="none" xmlns="http://www.w3.org/2000/svg">
<path d="M44.564 13C46.5361 13 48.4275 13.7834 49.822 15.178C51.2166 16.5725 52 18.4638 52 20.436V30.264C52 31.2405 51.8077 32.2075 51.434 33.1096C51.0603 34.0118 50.5125 34.8315 49.822 35.522C49.1315 36.2125 48.3118 36.7603 47.4096 37.134C46.5075 37.5077 45.5405 37.7 44.564 37.7H26C26 38.714 26.832 40.196 27.846 40.196H39V44.564C39 46.5361 38.2166 48.4275 36.822 49.822C35.4275 51.2166 33.5361 52 31.564 52H20.436C18.4638 52 16.5725 51.2166 15.178 49.822C13.7834 48.4275 13 46.5361 13 44.564V34.814C13 33.8387 13.1925 32.873 13.5665 31.9723C13.9405 31.0716 14.4887 30.2535 15.1795 29.5651C15.8704 28.8767 16.6903 28.3314 17.5923 27.9606C18.4944 27.5897 19.4607 27.4006 20.436 27.404H34.086C35.0613 27.404 36.027 27.2115 36.9277 26.8375C37.8284 26.4635 38.6465 25.9153 39.3349 25.2245C40.0233 24.5336 40.5686 23.7137 40.9394 22.8117C41.3103 21.9096 41.4994 20.9433 41.496 19.968V13H44.564ZM33.436 43.654C32.396 43.654 31.564 44.434 31.564 45.968C31.564 47.502 32.396 47.814 33.436 47.814C33.6784 47.814 33.9185 47.7663 34.1424 47.6735C34.3664 47.5807 34.5699 47.4447 34.7413 47.2733C34.9127 47.1019 35.0487 46.8984 35.1415 46.6744C35.2342 46.4505 35.282 46.2104 35.282 45.968C35.282 44.434 34.45 43.654 33.436 43.654ZM7.436 39C5.46385 39 3.57247 38.2166 2.17795 36.822C0.783433 35.4275 0 33.5361 0 31.564V21.736C0 20.7595 0.192338 19.7925 0.566032 18.8904C0.939726 17.9882 1.48746 17.1684 2.17795 16.478C3.57247 15.0834 5.46385 14.3 7.436 14.3H26C26 13.286 25.168 11.804 24.154 11.804H13V7.436C13 5.46385 13.7834 3.57247 15.178 2.17795C16.5725 0.783433 18.4638 0 20.436 0H31.564C32.5405 0 33.5075 0.192338 34.4096 0.566032C35.3118 0.939726 36.1315 1.48746 36.822 2.17795C37.5125 2.86845 38.0603 3.68819 38.434 4.59037C38.8077 5.49254 39 6.45949 39 7.436V17.186C39 18.1613 38.8075 19.127 38.4335 20.0277C38.0595 20.9284 37.5113 21.7465 36.8205 22.4349C36.1296 23.1233 35.3097 23.6686 34.4077 24.0394C33.5056 24.4103 32.5393 24.5994 31.564 24.596H17.914C16.9387 24.596 15.973 24.7885 15.0723 25.1625C14.1716 25.5365 13.3535 26.0847 12.6651 26.7755C11.9767 27.4664 11.4314 28.2863 11.0606 29.1883C10.6897 30.0904 10.5006 31.0567 10.504 32.032V39H7.436ZM18.564 8.346C19.604 8.346 20.436 7.566 20.436 6.032C20.436 4.498 19.604 4.186 18.564 4.186C17.55 4.186 16.718 4.498 16.718 6.032C16.718 7.566 17.55 8.346 18.564 8.346Z" fill="black"/>
</svg>
