<svg width="50" height="50" viewBox="0 0 50 50" fill="none" xmlns="http://www.w3.org/2000/svg">
<path d="M25 8.425L23.7845 8.275L8.42542 32.25C9.0884 32.775 9.53039 33.45 9.72376 34.2H40.2762C40.4696 33.45 40.9116 32.775 41.5746 32.25L26.2155 8.275L25 8.425ZM10.0829 36.325L21.9061 42.65C22.7072 41.975 23.8122 41.575 25 41.575C26.1878 41.575 27.2928 41.975 28.0939 42.65L39.9171 36.325H10.0829ZM25 50C23.7692 50 22.5887 49.5575 21.7184 48.7699C20.8481 47.9822 20.3591 46.9139 20.3591 45.8L20.6077 44.4L8.72928 38.025C7.87293 38.925 6.62983 39.475 5.22099 39.475C3.99016 39.475 2.80973 39.0325 1.93939 38.2449C1.06906 37.4572 0.580111 36.3889 0.580111 35.275C0.580111 33.3 2.0442 31.65 4.06077 31.175V18.4C1.76796 18.125 0 16.35 0 14.2C0 13.0861 0.488949 12.0178 1.35928 11.2302C2.22962 10.4425 3.41005 10 4.64088 10C6.16022 10 7.48619 10.65 8.34254 11.65L20.5249 5.325L20.3591 4.2C20.3591 1.875 22.4309 0 25 0C27.5691 0 29.6409 1.875 29.6409 4.2L29.4751 5.325L41.6575 11.65C42.5138 10.65 43.8398 10 45.3591 10C46.59 10 47.7704 10.4425 48.6407 11.2302C49.5111 12.0178 50 13.0861 50 14.2C50 16.35 48.232 18.125 45.9392 18.4V31.175C47.9558 31.65 49.4199 33.3 49.4199 35.275C49.4199 36.3889 48.9309 37.4572 48.0606 38.2449C47.1903 39.0325 46.0098 39.475 44.779 39.475C43.3702 39.475 42.1271 38.925 41.2707 38.025L29.3923 44.4L29.6409 45.8C29.6409 46.9139 29.1519 47.9822 28.2816 48.7699C27.4113 49.5575 26.2308 50 25 50ZM21.6851 7.15L9.25414 13.6L9.30939 14.2C9.30939 15.975 8.09392 17.5 6.38122 18.125L6.46409 31.25L21.6851 7.15ZM28.3149 7.15L43.5359 31.25L43.6188 18.125C41.9061 17.5 40.6906 15.975 40.6906 14.2L40.7459 13.6L28.3149 7.15Z" fill="#F8F8F8"/>
</svg>
