<svg xmlns="http://www.w3.org/2000/svg" width="48" height="48" fill="none" viewBox="0 0 48 48"><path fill="#FE5005" d="M0 24C0 13.627 0 8.443 2.798 4.905a12.87 12.87 0 0 1 2.108-2.107C8.438 0 13.627 0 24 0c10.373 0 15.557 0 19.094 2.798a12.87 12.87 0 0 1 2.108 2.107C48 8.438 48 13.627 48 24s0 15.557-2.798 19.094a12.87 12.87 0 0 1-2.108 2.107C39.562 48 34.373 48 24 48 13.627 48 8.443 48 4.906 45.201a12.87 12.87 0 0 1-2.108-2.107C0 39.561 0 34.373 0 24Z"/><path fill="#fff" fill-rule="evenodd" d="M25.815 19.027v-4.973a.588.588 0 0 0-.586-.585.588.588 0 0 0-.585.585v5.842c0 .331.269.595.595.595h.571c8.3 0 9.163.432 8.645 2.184-.024.086-.053.168-.082.26l-.014.052c-2.18 6.571-8.074 14.794-9.816 17.146a.611.611 0 0 1-.984 0c-1.051-1.421-3.624-4.992-5.971-9.044-.159-.37-.236-1.233 2.37-1.233h3.188c.178 0 .322.144.322.321v2.573c0 .307.225.59.532.615a.584.584 0 0 0 .466-.173.561.561 0 0 0 .173-.413v-3.49a.608.608 0 0 0-.605-.604h-6.441c-1.124 0-1.805-.96-2.252-1.834-1.401-2.938-2.404-5.837-2.404-8.122 0-5.85 4.665-11.116 11.107-11.116 5.736 0 10.08 4.17 10.963 9.216.005.043.038.235.043.273.23 2.477-6.23 2.194-8.947 2.208a.286.286 0 0 1-.288-.288v.005Z" clip-rule="evenodd"/></svg>
