<svg width="62" height="51" viewBox="0 0 62 51" fill="none" xmlns="http://www.w3.org/2000/svg">
<path d="M61.5084 6.50002C59.2625 7.52085 56.8417 8.19169 54.3334 8.51252C56.9 6.96669 58.8834 4.51669 59.8167 1.57085C57.3959 3.02919 54.7125 4.05002 51.8834 4.63335C49.5792 2.12502 46.3417 0.666687 42.6667 0.666687C35.8125 0.666687 30.2125 6.26669 30.2125 13.1792C30.2125 14.1709 30.3292 15.1334 30.5334 16.0375C20.15 15.5125 10.9042 10.525 4.75003 2.97085C3.67087 4.80835 3.05837 6.96669 3.05837 9.24169C3.05837 13.5875 5.24587 17.4375 8.6292 19.625C6.55837 19.625 4.63337 19.0417 2.9417 18.1667V18.2542C2.9417 24.3209 7.25837 29.3959 12.975 30.5334C11.1397 31.0356 9.21281 31.1055 7.34587 30.7375C8.13805 33.2239 9.68952 35.3995 11.7822 36.9586C13.8748 38.5176 16.4034 39.3816 19.0125 39.4292C14.5898 42.9305 9.10752 44.823 3.4667 44.7958C2.47503 44.7958 1.48337 44.7375 0.491699 44.6208C6.03337 48.1792 12.625 50.25 19.6834 50.25C42.6667 50.25 55.2959 31.175 55.2959 14.6375C55.2959 14.0834 55.2959 13.5584 55.2667 13.0042C57.7167 11.2542 59.8167 9.03752 61.5084 6.50002Z" fill="#DD94FF"/>
</svg>
