<svg width="74" height="52" viewBox="0 0 74 52" fill="none" xmlns="http://www.w3.org/2000/svg">
<path d="M37.2382 0H37.6499C41.4518 0.0138802 60.7162 0.152683 65.9104 1.54996C67.4806 1.9764 68.9115 2.80761 70.06 3.96053C71.2085 5.11345 72.0344 6.5477 72.4552 8.11994C72.9223 9.8781 73.2507 12.2054 73.4727 14.6066L73.519 15.0878L73.6207 16.2908L73.6577 16.772C73.9584 21.0008 73.9954 24.9613 74 25.8265V26.1735C73.9954 27.0711 73.9537 31.2999 73.6207 35.7046L73.5837 36.1904L73.5421 36.6716C73.3108 39.3181 72.9686 41.9461 72.4552 43.8801C72.0357 45.4529 71.2102 46.8879 70.0615 48.041C68.9128 49.1941 67.4813 50.0249 65.9104 50.45C60.545 51.8936 40.1521 51.9954 37.3261 52H36.6693C35.2401 52 29.329 51.9722 23.1311 51.7594L22.3448 51.7317L21.9424 51.7131L21.1514 51.6808L20.3605 51.6484C15.2265 51.4217 10.3375 51.0561 8.08501 50.4454C6.51467 50.0207 5.08349 49.1906 3.93485 48.0383C2.7862 46.886 1.96041 45.4521 1.54022 43.8801C1.02681 41.9507 0.684543 39.3181 0.453278 36.6716L0.416276 36.1858L0.379274 35.7046C0.151005 32.5695 0.0245134 29.4278 0 26.2845L0 25.7155C0.00925058 24.7207 0.0462529 21.283 0.296019 17.4891L0.328396 17.0125L0.342271 16.772L0.379274 16.2908L0.48103 15.0878L0.527283 14.6066C0.749297 12.2054 1.07769 9.87348 1.54485 8.11994C1.96433 6.54707 2.7898 5.11214 3.93849 3.95902C5.08719 2.80591 6.51874 1.97512 8.08963 1.54996C10.3421 0.948484 15.2311 0.578343 20.3651 0.347006L21.1514 0.314619L21.947 0.286859L22.3448 0.272979L23.1357 0.240592C27.5376 0.0988954 31.9413 0.0202321 36.3455 0.00462696H37.2382V0ZM29.6018 14.8519V37.1435L48.8292 26.0023L29.6018 14.8519Z" fill="#D99BFF"/>
</svg>
