<svg width="44" height="44" viewBox="0 0 44 44" fill="none" xmlns="http://www.w3.org/2000/svg">
<path d="M17.776 19.492C17.886 18.766 18.128 18.128 18.436 17.578C18.744 17.028 19.184 16.566 19.734 16.214C20.262 15.884 20.922 15.73 21.736 15.708C22.242 15.73 22.704 15.818 23.122 15.994C23.562 16.192 23.958 16.456 24.266 16.786C24.574 17.116 24.816 17.512 25.014 17.952C25.212 18.392 25.3 18.876 25.322 19.36H29.26C29.216 18.326 29.018 17.38 28.644 16.522C28.27 15.664 27.764 14.916 27.104 14.3C26.444 13.684 25.652 13.2 24.728 12.848C23.804 12.496 22.792 12.342 21.67 12.342C20.24 12.342 18.986 12.584 17.93 13.09C16.874 13.596 15.994 14.256 15.29 15.114C14.586 15.972 14.058 16.962 13.728 18.106C13.398 19.25 13.2 20.438 13.2 21.714V22.308C13.2 23.584 13.376 24.772 13.706 25.916C14.036 27.06 14.564 28.05 15.268 28.886C15.972 29.722 16.852 30.404 17.908 30.888C18.964 31.372 20.218 31.636 21.648 31.636C22.682 31.636 23.65 31.46 24.552 31.13C25.454 30.8 26.246 30.338 26.928 29.744C27.61 29.15 28.16 28.468 28.556 27.676C28.952 26.884 29.194 26.048 29.216 25.146H25.278C25.256 25.608 25.146 26.026 24.948 26.422C24.75 26.818 24.486 27.148 24.156 27.434C23.826 27.72 23.452 27.94 23.012 28.094C22.594 28.248 22.154 28.292 21.692 28.314C20.9 28.292 20.24 28.138 19.734 27.808C19.184 27.456 18.744 26.994 18.436 26.444C18.128 25.894 17.886 25.234 17.776 24.508C17.666 23.782 17.6 23.034 17.6 22.308V21.714C17.6 20.944 17.666 20.218 17.776 19.492ZM22 0C9.856 0 0 9.856 0 22C0 34.144 9.856 44 22 44C34.144 44 44 34.144 44 22C44 9.856 34.144 0 22 0ZM22 39.6C12.298 39.6 4.4 31.702 4.4 22C4.4 12.298 12.298 4.4 22 4.4C31.702 4.4 39.6 12.298 39.6 22C39.6 31.702 31.702 39.6 22 39.6Z" fill="white"/>
</svg>
