<svg width="31" height="31" viewBox="0 0 31 31" fill="none" xmlns="http://www.w3.org/2000/svg">
<path d="M13.95 15.81L12.555 14.415C12.2708 14.1308 11.9092 13.9887 11.47 13.9887C11.0308 13.9887 10.6692 14.1308 10.385 14.415C10.1008 14.6992 9.95875 15.0608 9.95875 15.5C9.95875 15.9392 10.1008 16.3008 10.385 16.585L14.415 20.615C14.725 20.925 15.0867 21.08 15.5 21.08C15.9133 21.08 16.275 20.925 16.585 20.615L20.615 16.585C20.8992 16.3008 21.0413 15.9392 21.0413 15.5C21.0413 15.0608 20.8992 14.6992 20.615 14.415C20.3308 14.1308 19.9692 13.9887 19.53 13.9887C19.0908 13.9887 18.7292 14.1308 18.445 14.415L17.05 15.81V10.85C17.05 10.4108 16.9012 10.0424 16.6036 9.74485C16.306 9.44725 15.9381 9.29897 15.5 9.3C15.0608 9.3 14.6924 9.4488 14.3948 9.7464C14.0972 10.044 13.949 10.4119 13.95 10.85V15.81ZM15.5 31C13.3558 31 11.3408 30.5929 9.455 29.7786C7.56917 28.9643 5.92875 27.8602 4.53375 26.4663C3.13875 25.0713 2.03463 23.4308 1.2214 21.545C0.408167 19.6592 0.00103333 17.6442 0 15.5C0 13.3558 0.407133 11.3408 1.2214 9.455C2.03567 7.56917 3.13978 5.92875 4.53375 4.53375C5.92875 3.13875 7.56917 2.03463 9.455 1.2214C11.3408 0.408167 13.3558 0.00103333 15.5 0C17.6442 0 19.6592 0.407133 21.545 1.2214C23.4308 2.03567 25.0713 3.13978 26.4663 4.53375C27.8613 5.92875 28.9659 7.56917 29.7801 9.455C30.5944 11.3408 31.001 13.3558 31 15.5C31 17.6442 30.5929 19.6592 29.7786 21.545C28.9643 23.4308 27.8602 25.0713 26.4663 26.4663C25.0713 27.8613 23.4308 28.9659 21.545 29.7801C19.6592 30.5944 17.6442 31.001 15.5 31Z" fill="#9747FF"/>
</svg>
