<svg width="34" height="46" viewBox="0 0 34 46" fill="none" xmlns="http://www.w3.org/2000/svg">
<path d="M33.3333 36.9792L18.125 45.4167C17.0833 45.9583 16.0417 45.9583 15 45.4167L0 36.9792L27.1875 9.58333L27.9167 9.375C28.5417 9.375 28.8958 9.64583 28.9583 10.2083L33.3333 36.9792ZM11.1458 10L1.66667 25.7292L5.625 0.833333C5.6875 0.270833 6.04167 0 6.66667 0C7.08333 0 7.35417 0.125 7.5 0.520833L11.9792 8.75L11.1458 10ZM20.5208 12.625L0.625 32.6042L15.7292 6.97917C15.9375 6.5625 16.25 6.375 16.6667 6.375C17.0833 6.375 17.3542 6.5625 17.5 6.97917L20.5208 12.625Z" fill="#F8F8F8"/>
</svg>
