<svg width="70" height="53" viewBox="0 0 70 53" fill="none" xmlns="http://www.w3.org/2000/svg">
<path d="M70 7.23973V48.1814C70 50.8424 67.865 52.9971 65.2283 52.9971H54.0896V25.7046L35 40.1573L15.9104 25.7046V53H4.77167C4.1448 53 3.52407 52.8753 2.94496 52.6332C2.36584 52.391 1.83969 52.036 1.39656 51.5885C0.95343 51.141 0.602012 50.6098 0.362385 50.0252C0.122758 49.4406 -0.000382281 48.8141 8.91484e-07 48.1814V7.23973C8.91484e-07 1.28495 6.73458 -2.11484 11.4538 1.45862L15.9104 4.83485L35 19.2817L54.0896 4.82897L58.5463 1.45862C63.2625 -2.1119 70 1.28495 70 7.23973Z" fill="#D99BFF"/>
</svg>
