<svg width="92" height="36" viewBox="0 0 92 36" fill="none" xmlns="http://www.w3.org/2000/svg">
<path d="M6.80685 11.0803L6.72383 10.8253L7.63695 9.67808L8.13501 9.33816H24.073L24.1975 9.67808L23.4504 10.7828L22.9939 11.0378L6.80685 11.0803ZM0.124515 15.2443L0 15.0319L0.913114 13.7997L1.41118 13.5447H21.7487L21.9562 13.9271L21.6242 14.9469L21.2091 15.2443H0.124515ZM10.9159 19.4509L10.7498 19.196L11.4139 18.0062L11.829 17.7513H20.7526L21.0431 18.0487L20.9601 19.111L20.6281 19.4509H10.9159ZM57.1941 10.273L49.8062 12.27C49.0176 12.44 48.9761 12.4825 48.395 11.8026C47.7309 11.0378 47.2744 10.5704 46.3198 10.103C43.5804 8.65831 40.7996 9.08321 38.2678 10.7403C35.2794 12.7799 33.6607 15.7117 33.7022 19.4509C33.7437 23.1051 36.1925 26.1219 39.7204 26.6743C42.7503 27.0567 45.2821 25.952 47.3159 23.615L48.5195 21.9578H39.928C39.0148 21.9578 38.8073 21.363 39.0979 20.5981L41.3806 15.5843C41.5052 15.3293 41.8372 14.8619 42.5013 14.8619H56.7791C57.4016 12.7374 58.4808 10.7828 59.8919 8.87076C63.1293 4.49424 67.0723 2.19975 72.3435 1.17998C76.7845 0.415146 81.1841 0.882541 85.0856 3.60193C88.572 6.06639 90.7718 9.38065 91.3113 13.7572C92.0999 19.9183 90.3152 24.9322 86.1647 29.2662C83.2178 32.3255 79.6069 34.2376 75.4979 35.1724L71.9284 35.5123C67.8609 35.4273 64.167 34.2376 61.0541 31.4757C58.8958 29.5637 57.4016 27.2692 56.6545 24.5498C56.032 25.5695 55.5339 26.5468 54.8283 27.5241C51.6324 31.8581 47.4404 34.535 42.1277 35.1724C37.7697 35.8522 33.7022 34.9599 30.1327 32.2406C26.8538 29.6911 24.9031 26.2919 24.488 22.0853C23.907 17.1139 25.3181 12.6524 28.265 8.74329C31.4194 4.49424 35.6114 1.81733 40.7581 0.840052C44.9086 0.0752223 48.9346 0.585107 52.5455 3.04956C54.9113 4.6642 56.5715 6.87371 57.6922 9.50812C57.8582 9.89053 57.6922 10.1455 57.1941 10.273ZM82.5537 17.0714L82.4292 15.5418C81.6406 11.0378 77.5731 8.48835 73.3396 9.46563C69.1476 10.4004 66.4082 13.0773 65.5366 17.3689C64.748 20.9381 66.4082 24.5498 69.6041 25.9944C72.053 27.0992 74.5433 26.9292 76.9091 25.7395C80.3955 23.9124 82.3462 20.9806 82.5537 17.0714Z" fill="black"/>
</svg>
