<svg width="138" height="37" viewBox="0 0 138 37" fill="none" xmlns="http://www.w3.org/2000/svg">
<path d="M8.584 3.8C11.848 3.8 14.332 4.496 16.036 5.888C17.74 7.28 18.592 9.32 18.592 12.008C18.592 14.768 17.716 16.904 15.964 18.416C14.236 19.928 11.776 20.684 8.584 20.684H6.28V29H0.736V3.8H8.584ZM8.224 16.58C9.904 16.58 11.116 16.22 11.86 15.5C12.604 14.78 12.976 13.616 12.976 12.008C12.976 10.424 12.604 9.284 11.86 8.588C11.116 7.892 9.904 7.544 8.224 7.544H6.28V16.58H8.224ZM39.5524 9.2L31.8844 30.512C31.0684 32.768 30.0964 34.364 28.9684 35.3C27.8404 36.236 26.3164 36.704 24.3964 36.704C23.1964 36.704 22.2244 36.464 21.4804 35.984C20.7364 35.504 20.3644 34.88 20.3644 34.112C20.3644 33.704 20.4364 33.332 20.5804 32.996C20.7244 32.684 20.9764 32.312 21.3364 31.88C21.9364 32.288 22.6684 32.492 23.5324 32.492C24.4444 32.492 25.1524 32.216 25.6564 31.664C26.1844 31.136 26.6884 30.14 27.1684 28.676L20.1124 9.2H25.5844L29.8684 22.448L34.0804 9.2H39.5524ZM63.5701 8.84C65.4661 8.84 66.9541 9.404 68.0341 10.532C69.1381 11.636 69.6901 13.172 69.6901 15.14V29H64.3261V15.248C64.3261 14.072 64.1581 13.28 63.8221 12.872C63.5101 12.44 62.8981 12.224 61.9861 12.224C60.6181 12.224 59.4661 12.824 58.5301 14.024V14.456V29H53.2021V14.888C53.2021 13.88 53.0581 13.184 52.7701 12.8C52.5061 12.416 52.0021 12.224 51.2581 12.224C49.9621 12.224 48.6541 13.004 47.3341 14.564V29H42.0061V16.292C42.0061 12.884 41.8621 10.784 41.5741 9.992C42.0301 9.728 42.6061 9.512 43.3021 9.344C43.9981 9.152 44.6341 9.056 45.2101 9.056C45.8581 9.056 46.3381 9.248 46.6501 9.632C46.9861 9.992 47.2021 10.616 47.2981 11.504C48.1621 10.568 49.0621 9.896 49.9981 9.488C50.9341 9.056 51.9781 8.84 53.1301 8.84C54.2341 8.84 55.1941 9.068 56.0101 9.524C56.8261 9.956 57.4501 10.592 57.8821 11.432C59.2261 9.704 61.1221 8.84 63.5701 8.84ZM92.302 24.212C92.302 25.316 92.338 26.18 92.41 26.804C92.506 27.428 92.65 27.956 92.842 28.388C92.362 28.628 91.786 28.82 91.114 28.964C90.442 29.108 89.806 29.18 89.206 29.18C88.51 29.18 87.994 29.012 87.658 28.676C87.322 28.34 87.106 27.776 87.01 26.984C86.314 27.752 85.462 28.34 84.454 28.748C83.47 29.156 82.39 29.36 81.214 29.36C79.126 29.36 77.53 28.796 76.426 27.668C75.322 26.516 74.77 24.86 74.77 22.7V9.2H80.098V22.448C80.098 23.72 80.29 24.632 80.674 25.184C81.082 25.712 81.766 25.976 82.726 25.976C84.43 25.976 85.834 25.112 86.938 23.384V9.2H92.302V24.212ZM105.942 29.36C99.3178 29.36 96.0058 25.904 96.0058 18.992C96.0058 15.824 96.8578 13.34 98.5618 11.54C100.266 9.74 102.618 8.84 105.618 8.84C107.97 8.84 109.902 9.428 111.414 10.604C112.95 11.756 113.85 13.328 114.114 15.32C112.722 16.16 111.57 16.58 110.658 16.58C110.274 16.58 109.95 16.46 109.686 16.22C109.446 15.98 109.242 15.596 109.074 15.068C108.714 14.06 108.27 13.352 107.742 12.944C107.214 12.512 106.506 12.296 105.618 12.296C104.274 12.296 103.23 12.872 102.486 14.024C101.766 15.176 101.406 16.832 101.406 18.992C101.406 21.32 101.766 23.036 102.486 24.14C103.23 25.22 104.382 25.76 105.942 25.76C107.022 25.76 107.874 25.4 108.498 24.68C109.122 23.936 109.59 22.76 109.902 21.152C111.222 21.152 112.17 21.392 112.746 21.872C113.322 22.352 113.61 23.132 113.61 24.212C113.61 25.124 113.25 25.976 112.53 26.768C111.834 27.56 110.898 28.196 109.722 28.676C108.546 29.132 107.286 29.36 105.942 29.36ZM137.591 29C137.279 29 136.403 29.036 134.963 29.108C134.291 29.156 133.847 29.18 133.631 29.18C132.983 29.18 132.467 29.06 132.083 28.82C131.699 28.58 131.363 28.22 131.075 27.74L128.267 22.664C127.907 21.992 127.463 21.524 126.935 21.26C126.431 20.972 125.627 20.864 124.523 20.936L123.587 21.008V29H118.259V0.524H123.587V17.336L124.379 17.3C125.267 17.252 125.927 17.084 126.359 16.796C126.791 16.508 127.211 15.944 127.619 15.104L130.499 9.2H136.403L132.443 16.292C132.059 16.964 131.711 17.492 131.399 17.876C131.111 18.26 130.703 18.596 130.175 18.884C130.895 19.076 131.459 19.34 131.867 19.676C132.275 20.012 132.659 20.492 133.019 21.116L137.591 29Z" fill="white"/>
</svg>
