<svg width="42" height="42" viewBox="0 0 42 42" fill="none" xmlns="http://www.w3.org/2000/svg">
<path d="M35.875 10.625C37.4552 10.625 38.9708 11.2528 40.0882 12.3702C41.2056 13.4876 41.8333 15.0031 41.8333 16.5833V24.4583C41.8333 25.2408 41.6792 26.0156 41.3798 26.7385C41.0803 27.4614 40.6414 28.1182 40.0882 28.6715C39.5349 29.2248 38.878 29.6637 38.1551 29.9631C37.4322 30.2626 36.6574 30.4167 35.875 30.4167H21C21 31.2292 21.6667 32.4167 22.4792 32.4167H31.4167V35.9167C31.4167 37.4969 30.7889 39.0124 29.6715 40.1298C28.5541 41.2472 27.0386 41.875 25.4583 41.875H16.5417C14.9614 41.875 13.4459 41.2472 12.3285 40.1298C11.2111 39.0124 10.5833 37.4969 10.5833 35.9167V28.1042C10.5833 27.3227 10.7376 26.5489 11.0373 25.8272C11.337 25.1054 11.7762 24.45 12.3297 23.8983C12.8833 23.3467 13.5403 22.9098 14.2631 22.6126C14.9859 22.3155 15.7602 22.1639 16.5417 22.1667H27.4792C28.2606 22.1667 29.0344 22.0124 29.7562 21.7127C30.4779 21.413 31.1334 20.9738 31.685 20.4203C32.2366 19.8667 32.6735 19.2097 32.9707 18.4869C33.2678 17.7641 33.4194 16.9898 33.4167 16.2083V10.625H35.875ZM26.9583 35.1875C26.125 35.1875 25.4583 35.8125 25.4583 37.0417C25.4583 38.2708 26.125 38.5208 26.9583 38.5208C27.1526 38.5208 27.3449 38.4826 27.5244 38.4082C27.7038 38.3339 27.8669 38.2249 28.0043 38.0876C28.1416 37.9502 28.2506 37.7872 28.3249 37.6077C28.3992 37.4283 28.4375 37.2359 28.4375 37.0417C28.4375 35.8125 27.7708 35.1875 26.9583 35.1875ZM6.12499 31.4583C4.54474 31.4583 3.02922 30.8306 1.91181 29.7132C0.794408 28.5958 0.166656 27.0803 0.166656 25.5V17.625C0.166656 16.8425 0.320773 16.0677 0.620208 15.3448C0.919642 14.6219 1.35853 13.9651 1.91181 13.4118C3.02922 12.2944 4.54474 11.6667 6.12499 11.6667H21C21 10.8542 20.3333 9.66667 19.5208 9.66667H10.5833V6.16667C10.5833 4.58642 11.2111 3.0709 12.3285 1.95349C13.4459 0.836087 14.9614 0.208336 16.5417 0.208336H25.4583C26.2408 0.208336 27.0156 0.362453 27.7385 0.661887C28.4614 0.961321 29.1182 1.40021 29.6715 1.95349C30.2248 2.50677 30.6637 3.16362 30.9631 3.88651C31.2625 4.60941 31.4167 5.38421 31.4167 6.16667V13.9792C31.4167 14.7606 31.2624 15.5344 30.9627 16.2562C30.663 16.9779 30.2238 17.6334 29.6702 18.185C29.1167 18.7366 28.4597 19.1735 27.7369 19.4707C27.0141 19.7679 26.2398 19.9194 25.4583 19.9167H14.5208C13.7393 19.9167 12.9655 20.0709 12.2438 20.3706C11.5221 20.6703 10.8666 21.1095 10.315 21.6631C9.76337 22.2166 9.32645 22.8736 9.02929 23.5964C8.73214 24.3192 8.58058 25.0935 8.58332 25.875V31.4583H6.12499ZM15.0417 6.89584C15.875 6.89584 16.5417 6.27084 16.5417 5.04167C16.5417 3.8125 15.875 3.5625 15.0417 3.5625C14.2292 3.5625 13.5625 3.8125 13.5625 5.04167C13.5625 6.27084 14.2292 6.89584 15.0417 6.89584Z" fill="#F8F8F8"/>
</svg>
