<svg width="179" height="179" viewBox="0 0 179 179" fill="none" xmlns="http://www.w3.org/2000/svg">
<path d="M54.2594 26.5368C51.4513 28.159 48.4978 32.6228 48.151 42.3783C48.0525 44.5881 47.0854 46.6696 45.4601 48.17C43.8348 49.6704 41.6828 50.4683 39.4722 50.3901C37.2616 50.312 35.1713 49.3641 33.656 47.7526C32.1407 46.1412 31.3231 43.9966 31.3809 41.7853C31.806 29.8371 35.5874 17.9448 45.8687 12.0042C56.1836 6.05246 68.4115 8.75984 78.9949 14.3983C80.9591 15.4457 82.4269 17.2305 83.0752 19.36C83.7235 21.4896 83.4992 23.7894 82.4519 25.7536C81.4045 27.7179 79.6197 29.1856 77.4902 29.8339C75.3606 30.4822 73.0608 30.258 71.0965 29.2106C62.4486 24.5902 57.0786 24.9258 54.2594 26.5368ZM99.2443 41.0805C100.093 40.3782 101.073 39.85 102.126 39.5261C103.179 39.2023 104.286 39.089 105.383 39.1929C106.48 39.2968 107.546 39.6158 108.52 40.1316C109.493 40.6474 110.356 41.35 111.058 42.1993C117.613 50.1507 123.488 58.6382 128.623 67.5725C140.258 87.7324 147.429 108.385 149.364 125.703C150.326 134.351 150.036 142.585 148.022 149.644C145.974 156.748 142.014 163.181 135.369 167.018C127.325 171.661 118.028 171.012 109.537 167.913C101.012 164.803 92.2297 158.93 83.8615 151.289C82.2428 149.782 81.284 147.698 81.1937 145.489C81.1034 143.279 81.8888 141.124 83.3792 139.49C84.8696 137.857 86.9444 136.878 89.1527 136.766C91.361 136.654 93.5242 137.419 95.172 138.893C102.556 145.628 109.481 150.036 115.276 152.139C121.116 154.264 124.785 153.761 126.978 152.486C128.813 151.423 130.67 149.264 131.878 145.024C133.109 140.728 133.5 134.843 132.684 127.571C131.062 113.039 124.852 94.6015 114.079 75.9631C109.417 67.8499 104.084 60.1409 98.1367 52.9169C97.4344 52.0678 96.9062 51.0886 96.5824 50.0353C96.2585 48.982 96.1453 47.8752 96.2491 46.7782C96.353 45.6811 96.672 44.6153 97.1878 43.6415C97.7037 42.6677 98.4062 41.8051 99.2555 41.1029L99.2443 41.0805Z" fill="black"/>
<path d="M162.219 91.8046C162.219 88.5602 159.825 83.7608 151.557 78.6034C150.622 78.0194 149.811 77.2569 149.171 76.3595C148.53 75.4621 148.073 74.4474 147.824 73.3732C147.576 72.299 147.542 71.1864 147.723 70.099C147.905 69.0116 148.299 67.9706 148.883 67.0355C150.063 65.1469 151.944 63.8042 154.113 63.3028C155.188 63.0545 156.3 63.0202 157.388 63.2019C158.475 63.3836 159.516 63.7777 160.451 64.3617C170.587 70.705 179 79.9235 179 91.8046C179 103.708 170.542 112.949 160.362 119.292C158.474 120.425 156.217 120.771 154.077 120.255C151.938 119.739 150.086 118.402 148.922 116.534C147.759 114.666 147.375 112.415 147.856 110.267C148.336 108.119 149.641 106.245 151.49 105.051C159.813 99.8596 162.219 95.049 162.219 91.8046ZM127.124 123.488C127.308 124.574 127.277 125.686 127.031 126.761C126.786 127.835 126.331 128.85 125.693 129.749C125.056 130.648 124.247 131.412 123.314 131.998C122.38 132.584 121.341 132.981 120.254 133.165C110.09 134.854 99.8033 135.692 89.5 135.671C66.23 135.671 44.75 131.565 28.7854 124.573C20.8087 121.093 13.8389 116.719 8.73744 111.439C3.58 106.125 0 99.468 0 91.8046C0 82.519 5.21338 74.7996 12.1384 68.9821C19.0971 63.1534 28.5841 58.4882 39.38 55.0649C41.5015 54.3913 43.8036 54.5881 45.78 55.612C46.7586 56.1189 47.6278 56.8137 48.3379 57.6566C49.048 58.4994 49.5851 59.4739 49.9186 60.5244C50.2521 61.5748 50.3755 62.6807 50.2816 63.7788C50.1877 64.8769 49.8785 65.9458 49.3715 66.9244C48.8645 67.903 48.1698 68.7721 47.3269 69.4822C46.4841 70.1923 45.5096 70.7295 44.4591 71.063C34.9497 74.0836 27.6555 77.8762 22.9344 81.8477C18.1685 85.8305 16.7812 89.265 16.7812 91.8046C16.7812 93.9302 17.7322 96.6152 20.7976 99.7813C23.9077 102.992 28.8078 106.27 35.5091 109.201C48.9006 115.063 67.9752 118.89 89.5 118.89C99.4009 118.89 108.821 118.084 117.446 116.618C118.533 116.434 119.645 116.465 120.719 116.711C121.794 116.956 122.809 117.411 123.708 118.049C124.606 118.686 125.371 119.495 125.957 120.428C126.543 121.362 126.939 122.401 127.124 123.488Z" fill="black"/>
<path d="M54.5055 152.486C57.3024 154.108 62.6612 154.432 71.2755 149.857C72.2489 149.339 73.3145 149.019 74.4116 148.914C75.5088 148.808 76.6159 148.92 77.6698 149.243C78.7238 149.565 79.7038 150.092 80.5541 150.794C81.4043 151.495 82.1081 152.357 82.6253 153.33C83.1424 154.304 83.4628 155.369 83.5681 156.466C83.6734 157.564 83.5616 158.671 83.239 159.725C82.9164 160.779 82.3895 161.759 81.6881 162.609C80.9868 163.459 80.1249 164.163 79.1515 164.68C68.5905 170.285 56.3962 172.959 46.1149 167.029C35.8 161.066 32.0186 149.129 31.627 137.136C31.5864 134.933 32.4142 132.802 33.9315 131.204C35.4489 129.606 37.5341 128.669 39.7365 128.596C41.939 128.522 44.0819 129.318 45.7024 130.812C47.3229 132.305 48.2909 134.376 48.3971 136.577C48.7327 146.366 51.6862 150.863 54.5055 152.486ZM44.6157 106.248C42.5301 105.473 40.8375 103.902 39.9102 101.879C38.9829 99.8568 38.8968 97.5488 39.6709 95.463C43.0495 86.3451 47.4685 76.9253 52.8721 67.5725C64.5071 47.4126 78.8047 30.8775 92.8339 20.5403C99.8372 15.3828 107.109 11.5231 114.236 9.74432C121.407 7.95432 128.969 8.16688 135.604 12.0042C143.659 16.647 147.731 25.0153 149.297 33.9317C150.875 42.8705 150.17 53.4091 147.731 64.4736C147.534 65.5866 147.113 66.6482 146.496 67.5948C145.878 68.5414 145.075 69.3534 144.136 69.982C143.196 70.6107 142.139 71.043 141.029 71.2531C139.918 71.4632 138.776 71.4467 137.672 71.2046C136.568 70.9625 135.524 70.4998 134.603 69.8443C133.682 69.1887 132.903 68.3539 132.313 67.3899C131.723 66.4258 131.334 65.3524 131.169 64.2342C131.003 63.1159 131.066 61.9759 131.352 60.8824C133.489 51.1269 133.847 42.9153 132.773 36.8293C131.699 30.7209 129.417 27.8009 127.224 26.5368C125.389 25.4739 122.581 24.9481 118.308 26.0221C113.967 27.1073 108.687 29.714 102.791 34.0548C91.0215 42.7139 78.1559 57.3248 67.4047 75.9631C62.6999 84.0582 58.6843 92.5346 55.4005 101.303C54.6258 103.388 53.0544 105.081 51.032 106.008C49.0096 106.936 46.7016 107.022 44.6157 106.248Z" fill="black"/>
<path d="M105.834 90.2384C105.834 94.2737 104.231 98.1437 101.377 100.997C98.5241 103.85 94.6541 105.453 90.6188 105.453C86.5835 105.453 82.7135 103.85 79.8602 100.997C77.0068 98.1437 75.4038 94.2737 75.4038 90.2384C75.4038 86.2032 77.0068 82.3332 79.8602 79.4798C82.7135 76.6264 86.5835 75.0234 90.6188 75.0234C94.6541 75.0234 98.5241 76.6264 101.377 79.4798C104.231 82.3332 105.834 86.2032 105.834 90.2384Z" fill="black"/>
</svg>
