<svg width="31" height="31" viewBox="0 0 31 31" fill="none" xmlns="http://www.w3.org/2000/svg">
<path d="M13.95 15.19V20.15C13.95 20.5892 14.0988 20.9575 14.3964 21.2551C14.694 21.5527 15.0619 21.701 15.5 21.7C15.9392 21.7 16.3075 21.5512 16.6051 21.2536C16.9027 20.956 17.051 20.5881 17.05 20.15V15.19L18.445 16.585C18.7292 16.8692 19.0908 17.0112 19.53 17.0112C19.9692 17.0112 20.3308 16.8692 20.615 16.585C20.8992 16.3008 21.0412 15.9392 21.0412 15.5C21.0412 15.0608 20.8992 14.6992 20.615 14.415L16.585 10.385C16.275 10.075 15.9133 9.92 15.5 9.92C15.0867 9.92 14.725 10.075 14.415 10.385L10.385 14.415C10.1008 14.6992 9.95875 15.0608 9.95875 15.5C9.95875 15.9392 10.1008 16.3008 10.385 16.585C10.6692 16.8692 11.0308 17.0112 11.47 17.0112C11.9092 17.0112 12.2708 16.8692 12.555 16.585L13.95 15.19ZM15.5 31C13.3558 31 11.3408 30.5929 9.455 29.7786C7.56917 28.9643 5.92875 27.8602 4.53375 26.4662C3.13875 25.0712 2.03463 23.4308 1.2214 21.545C0.408167 19.6592 0.00103333 17.6442 0 15.5C0 13.3558 0.407133 11.3408 1.2214 9.455C2.03567 7.56917 3.13978 5.92875 4.53375 4.53375C5.92875 3.13875 7.56917 2.03463 9.455 1.2214C11.3408 0.408167 13.3558 0.00103333 15.5 0C17.6442 0 19.6592 0.407133 21.545 1.2214C23.4308 2.03567 25.0712 3.13978 26.4662 4.53375C27.8612 5.92875 28.9659 7.56917 29.7801 9.455C30.5944 11.3408 31.001 13.3558 31 15.5C31 17.6442 30.5929 19.6592 29.7786 21.545C28.9643 23.4308 27.8602 25.0712 26.4662 26.4662C25.0712 27.8612 23.4308 28.9659 21.545 29.7801C19.6592 30.5944 17.6442 31.001 15.5 31Z" fill="#9747FF"/>
</svg>
