<svg width="48" height="48" viewBox="0 0 48 48" fill="none" xmlns="http://www.w3.org/2000/svg">
<path d="M34.1733 28.6666C34.36 27.1266 34.5 25.5866 34.5 24C34.5 22.4133 34.36 20.8733 34.1733 19.3333H42.06C42.4333 20.8266 42.6666 22.39 42.6666 24C42.6666 25.61 42.4333 27.1733 42.06 28.6666M30.0433 41.64C31.4433 39.05 32.5166 36.25 33.2633 33.3333H40.1466C37.886 37.2259 34.2996 40.1746 30.0433 41.64ZM29.46 28.6666H18.54C18.3066 27.1266 18.1666 25.5866 18.1666 24C18.1666 22.4133 18.3066 20.85 18.54 19.3333H29.46C29.67 20.85 29.8333 22.4133 29.8333 24C29.8333 25.5866 29.67 27.1266 29.46 28.6666ZM24 42.5733C22.0633 39.7733 20.5 36.67 19.5433 33.3333H28.4566C27.5 36.67 25.9366 39.7733 24 42.5733ZM14.6666 14.6666H7.85329C10.0906 10.7635 13.6745 7.81009 17.9333 6.35996C16.5333 8.94996 15.4833 11.75 14.6666 14.6666ZM7.85329 33.3333H14.6666C15.4833 36.25 16.5333 39.05 17.9333 41.64C13.6834 40.1738 10.1046 37.2246 7.85329 33.3333ZM5.93996 28.6666C5.56663 27.1733 5.33329 25.61 5.33329 24C5.33329 22.39 5.56663 20.8266 5.93996 19.3333H13.8266C13.64 20.8733 13.5 22.4133 13.5 24C13.5 25.5866 13.64 27.1266 13.8266 28.6666M24 5.40329C25.9366 8.20329 27.5 11.33 28.4566 14.6666H19.5433C20.5 11.33 22.0633 8.20329 24 5.40329ZM40.1466 14.6666H33.2633C32.533 11.7767 31.4516 8.98705 30.0433 6.35996C34.3366 7.82996 37.9066 10.7933 40.1466 14.6666ZM24 0.666626C11.0966 0.666626 0.666626 11.1666 0.666626 24C0.666626 30.1883 3.12495 36.1233 7.5008 40.4991C9.6675 42.6658 12.2397 44.3845 15.0707 45.5572C17.9016 46.7298 20.9358 47.3333 24 47.3333C30.1883 47.3333 36.1233 44.875 40.4991 40.4991C44.875 36.1233 47.3333 30.1883 47.3333 24C47.3333 20.9358 46.7298 17.9016 45.5572 15.0707C44.3845 12.2397 42.6658 9.6675 40.4991 7.5008C38.3324 5.3341 35.7602 3.61538 32.9292 2.44277C30.0983 1.27016 27.0641 0.666626 24 0.666626Z" fill="black"/>
</svg>
